<svg xmlns="http://www.w3.org/2000/svg" viewBox="0 0 800 450" width="800" height="450" preserveAspectRatio="xMidYMid slice"><defs><linearGradient id="sky" x1="0" y1="0" x2="0" y2="1"><stop offset="0" stop-color="#94a3b8"/><stop offset="0.6" stop-color="#cbd5e1"/><stop offset="1" stop-color="#e2e8f0"/></linearGradient>
<linearGradient id="shade" x1="0" y1="0" x2="0" y2="1"><stop offset="0" stop-color="#000" stop-opacity="0"/><stop offset="1" stop-color="#000" stop-opacity="0.25"/></linearGradient>
<radialGradient id="vignette" cx="0.5" cy="0.5" r="0.75"><stop offset="0.6" stop-color="#000" stop-opacity="0"/><stop offset="1" stop-color="#000" stop-opacity="0.35"/></radialGradient>
<filter id="grain"><feTurbulence type="fractalNoise" baseFrequency="0.85" numOctaves="2" stitchTiles="stitch"/><feColorMatrix type="saturate" values="0"/></filter></defs>
<rect width="800" height="450" fill="url(#sky)"/><g opacity="0.95" fill="#f1f5f9"><ellipse cx="190.5" cy="27" rx="58.7" ry="17.6"/><ellipse cx="219.9" cy="15.2" rx="35.2" ry="19.6"/><ellipse cx="163.1" cy="21.1" rx="29.4" ry="14.7"/></g><g opacity="0.95" fill="#f1f5f9"><ellipse cx="150.8" cy="109.1" rx="55.1" ry="16.5"/><ellipse cx="178.4" cy="98.1" rx="33" ry="18.4"/><ellipse cx="125.1" cy="103.6" rx="27.5" ry="13.8"/></g><g opacity="0.95" fill="#f1f5f9"><ellipse cx="725.6" cy="94.6" rx="105.4" ry="31.6"/><ellipse cx="778.3" cy="73.6" rx="63.2" ry="35.1"/><ellipse cx="676.5" cy="84.1" rx="52.7" ry="26.3"/></g><g opacity="0.95" fill="#f1f5f9"><ellipse cx="54.3" cy="87.5" rx="97.4" ry="29.2"/><ellipse cx="103" cy="68" rx="58.4" ry="32.5"/><ellipse cx="8.8" cy="77.7" rx="48.7" ry="24.3"/></g><g opacity="0.95" fill="#f1f5f9"><ellipse cx="639.2" cy="81.4" rx="100.5" ry="30.1"/><ellipse cx="689.5" cy="61.3" rx="60.3" ry="33.5"/><ellipse cx="592.4" cy="71.3" rx="50.2" ry="25.1"/></g><g opacity="0.95" fill="#f1f5f9"><ellipse cx="676.4" cy="46" rx="93.8" ry="28.1"/><ellipse cx="723.3" cy="27.2" rx="56.3" ry="31.3"/><ellipse cx="632.7" cy="36.6" rx="46.9" ry="23.4"/></g><g opacity="0.95" fill="#f1f5f9"><ellipse cx="401.5" cy="76.4" rx="46.1" ry="13.8"/><ellipse cx="424.6" cy="67.2" rx="27.7" ry="15.4"/><ellipse cx="380" cy="71.8" rx="23.1" ry="11.5"/></g><path d="M0 230 L0 198.6 L80 150.1 L160 159.9 L240 187.4 L320 191.8 L400 182.8 L480 166.2 L560 142.5 L640 146 L720 172.5 L800 153.9 L800 230 Z" fill="#64748b" opacity="0.45"/><path d="M0 230 L0 206.3 L60 186.5 L120 195.1 L180 193.6 L240 189 L300 207.6 L360 215.5 L420 196.2 L480 207.3 L540 189.3 L600 206.8 L660 195.1 L720 205.5 L780 214.1 L800 230 Z" fill="#4d7c0f" opacity="0.55"/><rect x="0" y="230" width="800" height="220" fill="#a8a29e"/><ellipse cx="62.7" cy="411.1" rx="11.3" ry="2.8" fill="#00000022"/><ellipse cx="598.8" cy="386" rx="14.4" ry="1.6" fill="#00000022"/><ellipse cx="331" cy="300.6" rx="13" ry="2" fill="#00000022"/><ellipse cx="237.3" cy="286.8" rx="16.4" ry="1.2" fill="#00000022"/><ellipse cx="51.9" cy="425.9" rx="14.8" ry="1.3" fill="#00000022"/><ellipse cx="678.8" cy="281.2" rx="20.5" ry="3.4" fill="#00000022"/><ellipse cx="716.7" cy="231.8" rx="18.1" ry="3.2" fill="#00000022"/><ellipse cx="242.5" cy="259.2" rx="22" ry="2.2" fill="#00000022"/><ellipse cx="368" cy="423.9" rx="17.2" ry="1.1" fill="#00000022"/><ellipse cx="274.5" cy="281.5" rx="16.3" ry="1.4" fill="#00000022"/><ellipse cx="645.5" cy="252.3" rx="7.8" ry="1.2" fill="#00000022"/><ellipse cx="160.5" cy="417" rx="5.5" ry="1.1" fill="#00000022"/><ellipse cx="179.2" cy="330.9" rx="7.9" ry="2.6" fill="#00000022"/><ellipse cx="156.4" cy="247" rx="8.1" ry="2.2" fill="#00000022"/><ellipse cx="161.8" cy="425.7" rx="8.2" ry="1.1" fill="#00000022"/><ellipse cx="679.8" cy="268.3" rx="15.4" ry="3.3" fill="#00000022"/><ellipse cx="114.2" cy="447.7" rx="14.8" ry="3.2" fill="#00000022"/><ellipse cx="554.4" cy="284.9" rx="21.1" ry="2.2" fill="#00000022"/><ellipse cx="727.6" cy="230.4" rx="7.7" ry="2.1" fill="#00000022"/><ellipse cx="81.3" cy="278.2" rx="13.7" ry="1.6" fill="#00000022"/><ellipse cx="785.4" cy="387.5" rx="19.5" ry="1.3" fill="#00000022"/><ellipse cx="506.5" cy="241.7" rx="16.3" ry="4" fill="#00000022"/><ellipse cx="80.5" cy="320.2" rx="8.8" ry="3.4" fill="#00000022"/><ellipse cx="70.3" cy="397.8" rx="13.7" ry="3.2" fill="#00000022"/><ellipse cx="334.7" cy="326.9" rx="5.3" ry="1.9" fill="#00000022"/><ellipse cx="14.3" cy="259.1" rx="14.5" ry="2.5" fill="#00000022"/><ellipse cx="195.2" cy="445.7" rx="19.5" ry="2.7" fill="#00000022"/><ellipse cx="640.7" cy="280.3" rx="5.5" ry="2.9" fill="#00000022"/><ellipse cx="711.9" cy="433.3" rx="14.5" ry="2" fill="#00000022"/><ellipse cx="244.9" cy="389.6" rx="7.9" ry="2.3" fill="#00000022"/><ellipse cx="523.5" cy="378.3" rx="11.2" ry="3.7" fill="#00000022"/><ellipse cx="739.1" cy="244.5" rx="12" ry="3.4" fill="#00000022"/><ellipse cx="693.4" cy="274.5" rx="20.3" ry="3.2" fill="#00000022"/><ellipse cx="770.5" cy="442" rx="17.5" ry="1" fill="#00000022"/><ellipse cx="77.9" cy="323.8" rx="9" ry="1" fill="#00000022"/><ellipse cx="195.1" cy="398.7" rx="21.3" ry="1.5" fill="#00000022"/><ellipse cx="371.9" cy="290.9" rx="8.2" ry="3" fill="#00000022"/><ellipse cx="712.6" cy="304" rx="4.8" ry="2.3" fill="#00000022"/><ellipse cx="390.8" cy="296.4" rx="4.4" ry="1.1" fill="#00000022"/><ellipse cx="15.2" cy="243.5" rx="7.1" ry="3.3" fill="#00000022"/><path d="M100 420 L200 280 L620 280 L720 420 Z" fill="#9ca3af"/><path d="M100 420 L200 280 L380 280 L320 420 Z" fill="#6b7280"/><path d="M100 420 L200 280 L200 255 L100 395 Z" fill="#d6a75c"/><g transform="translate(640 300)"><rect x="-80" y="-40" width="140" height="40" rx="4" fill="#f8fafc"/><rect x="40" y="-50" width="50" height="50" rx="4" fill="#0284c7"/><circle cx="-55" cy="0" r="12" fill="#111827"/><circle cx="-20" cy="0" r="12" fill="#111827"/><circle cx="60" cy="0" r="12" fill="#111827"/><path d="M-20 -40 L-140 -170 L-300 -120" stroke="#f97316" stroke-width="10" fill="none" stroke-linejoin="round"/><line x1="-300" y1="-120" x2="-300" y2="-40" stroke="#111827" stroke-width="6"/></g><g transform="translate(150 260) scale(0.6 0.6)"><rect x="-70" y="-50" width="95" height="36" rx="3" fill="#e5e7eb"/><path d="M-70 -50 L25 -50 L25 -58 Q-20 -72 -66 -58 Z" fill="#9ca3af"/><rect x="28" y="-56" width="40" height="42" rx="5" fill="#2563eb"/><rect x="40" y="-52" width="24" height="16" fill="#bfdbfe"/><rect x="-74" y="-16" width="146" height="6" fill="#111827"/><circle cx="-52" cy="-6" r="11" fill="#111827"/><circle cx="-52" cy="-6" r="4" fill="#9ca3af"/><circle cx="-26" cy="-6" r="11" fill="#111827"/><circle cx="-26" cy="-6" r="4" fill="#9ca3af"/><circle cx="50" cy="-6" r="11" fill="#111827"/><circle cx="50" cy="-6" r="4" fill="#9ca3af"/></g><g transform="translate(371.7 322.1) scale(0.8)"><rect x="-4" y="-18" width="3.5" height="18" fill="#1e3a8a"/><rect x="0.5" y="-18" width="3.5" height="18" fill="#1e3a8a"/><rect x="-6" y="-38" width="12" height="21" rx="3" fill="#f97316"/><rect x="-6" y="-31" width="12" height="2.5" fill="#e5e7eb"/><rect x="-9" y="-36" width="3" height="14" rx="1.5" fill="#f97316"/><rect x="6" y="-36" width="3" height="14" rx="1.5" fill="#f97316"/><circle cx="0" cy="-43" r="5" fill="#fcd9b6"/><path d="M-7 -44 A7 7 0 0 1 7 -44 Z" fill="#ffffff"/><rect x="-8" y="-45" width="16" height="2" fill="#ffffff"/></g><g transform="translate(553.3 365.6) scale(1.1)"><rect x="-4" y="-18" width="3.5" height="18" fill="#1e3a8a"/><rect x="0.5" y="-18" width="3.5" height="18" fill="#1e3a8a"/><rect x="-6" y="-38" width="12" height="21" rx="3" fill="#eab308"/><rect x="-6" y="-31" width="12" height="2.5" fill="#e5e7eb"/><rect x="-9" y="-36" width="3" height="14" rx="1.5" fill="#eab308"/><rect x="6" y="-36" width="3" height="14" rx="1.5" fill="#eab308"/><circle cx="0" cy="-43" r="5" fill="#fcd9b6"/><path d="M-7 -44 A7 7 0 0 1 7 -44 Z" fill="#fde047"/><rect x="-8" y="-45" width="16" height="2" fill="#fde047"/></g><g transform="translate(536.2 369.2) scale(1.1)"><rect x="-4" y="-18" width="3.5" height="18" fill="#1e3a8a"/><rect x="0.5" y="-18" width="3.5" height="18" fill="#1e3a8a"/><rect x="-6" y="-38" width="12" height="21" rx="3" fill="#22c55e"/><rect x="-6" y="-31" width="12" height="2.5" fill="#e5e7eb"/><rect x="-9" y="-36" width="3" height="14" rx="1.5" fill="#22c55e"/><rect x="6" y="-36" width="3" height="14" rx="1.5" fill="#22c55e"/><circle cx="0" cy="-43" r="5" fill="#fcd9b6"/><path d="M-7 -44 A7 7 0 0 1 7 -44 Z" fill="#fde047"/><rect x="-8" y="-45" width="16" height="2" fill="#fde047"/></g><g transform="translate(382.3 358.1) scale(1.1)"><rect x="-4" y="-18" width="3.5" height="18" fill="#1e3a8a"/><rect x="0.5" y="-18" width="3.5" height="18" fill="#1e3a8a"/><rect x="-6" y="-38" width="12" height="21" rx="3" fill="#f97316"/><rect x="-6" y="-31" width="12" height="2.5" fill="#e5e7eb"/><rect x="-9" y="-36" width="3" height="14" rx="1.5" fill="#f97316"/><rect x="6" y="-36" width="3" height="14" rx="1.5" fill="#f97316"/><circle cx="0" cy="-43" r="5" fill="#fcd9b6"/><path d="M-7 -44 A7 7 0 0 1 7 -44 Z" fill="#ffffff"/><rect x="-8" y="-45" width="16" height="2" fill="#ffffff"/></g><g transform="translate(305.7 406.4) scale(1.4)"><rect x="-4" y="-18" width="3.5" height="18" fill="#1e3a8a"/><rect x="0.5" y="-18" width="3.5" height="18" fill="#1e3a8a"/><rect x="-6" y="-38" width="12" height="21" rx="3" fill="#f97316"/><rect x="-6" y="-31" width="12" height="2.5" fill="#e5e7eb"/><rect x="-9" y="-36" width="3" height="14" rx="1.5" fill="#f97316"/><rect x="6" y="-36" width="3" height="14" rx="1.5" fill="#f97316"/><circle cx="0" cy="-43" r="5" fill="#fcd9b6"/><path d="M-7 -44 A7 7 0 0 1 7 -44 Z" fill="#fde047"/><rect x="-8" y="-45" width="16" height="2" fill="#fde047"/></g><g transform="translate(397.7 374.2) scale(1.2)"><rect x="-4" y="-18" width="3.5" height="18" fill="#1e3a8a"/><rect x="0.5" y="-18" width="3.5" height="18" fill="#1e3a8a"/><rect x="-6" y="-38" width="12" height="21" rx="3" fill="#eab308"/><rect x="-6" y="-31" width="12" height="2.5" fill="#e5e7eb"/><rect x="-9" y="-36" width="3" height="14" rx="1.5" fill="#eab308"/><rect x="6" y="-36" width="3" height="14" rx="1.5" fill="#eab308"/><circle cx="0" cy="-43" r="5" fill="#fcd9b6"/><path d="M-7 -44 A7 7 0 0 1 7 -44 Z" fill="#fde047"/><rect x="-8" y="-45" width="16" height="2" fill="#fde047"/></g><rect width="800" height="450" fill="#475569" opacity="0.12"/><rect width="800" height="450" filter="url(#grain)" opacity="0.07"/><rect width="800" height="450" fill="url(#vignette)"/></svg>
