<svg xmlns="http://www.w3.org/2000/svg" viewBox="0 0 800 450" width="800" height="450" preserveAspectRatio="xMidYMid slice"><defs><linearGradient id="sky" x1="0" y1="0" x2="0" y2="1"><stop offset="0" stop-color="#475569"/><stop offset="0.6" stop-color="#64748b"/><stop offset="1" stop-color="#94a3b8"/></linearGradient>
<linearGradient id="shade" x1="0" y1="0" x2="0" y2="1"><stop offset="0" stop-color="#000" stop-opacity="0"/><stop offset="1" stop-color="#000" stop-opacity="0.25"/></linearGradient>
<radialGradient id="vignette" cx="0.5" cy="0.5" r="0.75"><stop offset="0.6" stop-color="#000" stop-opacity="0"/><stop offset="1" stop-color="#000" stop-opacity="0.35"/></radialGradient>
<filter id="grain"><feTurbulence type="fractalNoise" baseFrequency="0.85" numOctaves="2" stitchTiles="stitch"/><feColorMatrix type="saturate" values="0"/></filter></defs>
<rect width="800" height="450" fill="url(#sky)"/><g opacity="0.95" fill="#64748b"><ellipse cx="486.6" cy="102.8" rx="105.8" ry="31.7"/><ellipse cx="539.5" cy="81.6" rx="63.5" ry="35.3"/><ellipse cx="437.2" cy="92.2" rx="52.9" ry="26.4"/></g><g opacity="0.95" fill="#64748b"><ellipse cx="332.5" cy="102.9" rx="83.9" ry="25.2"/><ellipse cx="374.5" cy="86.1" rx="50.4" ry="28"/><ellipse cx="293.4" cy="94.5" rx="42" ry="21"/></g><g opacity="0.95" fill="#64748b"><ellipse cx="508.6" cy="46.7" rx="92.3" ry="27.7"/><ellipse cx="554.7" cy="28.3" rx="55.4" ry="30.8"/><ellipse cx="465.5" cy="37.5" rx="46.1" ry="23.1"/></g><g opacity="0.95" fill="#64748b"><ellipse cx="775.2" cy="50.6" rx="73.8" ry="22.2"/><ellipse cx="812.1" cy="35.8" rx="44.3" ry="24.6"/><ellipse cx="740.7" cy="43.2" rx="36.9" ry="18.5"/></g><g opacity="0.95" fill="#64748b"><ellipse cx="213.9" cy="73.8" rx="85.4" ry="25.6"/><ellipse cx="256.6" cy="56.7" rx="51.2" ry="28.5"/><ellipse cx="174.1" cy="65.3" rx="42.7" ry="21.3"/></g><g opacity="0.95" fill="#64748b"><ellipse cx="561.3" cy="94" rx="75.6" ry="22.7"/><ellipse cx="599.1" cy="78.9" rx="45.4" ry="25.2"/><ellipse cx="526" cy="86.4" rx="37.8" ry="18.9"/></g><g opacity="0.95" fill="#64748b"><ellipse cx="86.2" cy="35.2" rx="59.2" ry="17.8"/><ellipse cx="115.8" cy="23.4" rx="35.5" ry="19.7"/><ellipse cx="58.5" cy="29.3" rx="29.6" ry="14.8"/></g><g opacity="0.95" fill="#64748b"><ellipse cx="80.9" cy="26.7" rx="61.7" ry="18.5"/><ellipse cx="111.7" cy="14.4" rx="37" ry="20.6"/><ellipse cx="52.1" cy="20.6" rx="30.8" ry="15.4"/></g><g opacity="0.95" fill="#64748b"><ellipse cx="96" cy="47.2" rx="89.7" ry="26.9"/><ellipse cx="140.9" cy="29.3" rx="53.8" ry="29.9"/><ellipse cx="54.1" cy="38.2" rx="44.9" ry="22.4"/></g><path d="M0 220 L0 161.8 L80 161.1 L160 189.5 L240 176 L320 164.7 L400 174.7 L480 178.9 L560 133.6 L640 181.7 L720 174 L800 185.7 L800 220 Z" fill="#64748b" opacity="0.45"/><path d="M0 220 L0 186 L60 192.2 L120 186.6 L180 176 L240 205.7 L300 198.7 L360 180 L420 199.5 L480 178.5 L540 204.3 L600 180.1 L660 189 L720 189.4 L780 176.7 L800 220 Z" fill="#4d7c0f" opacity="0.55"/><rect x="0" y="220" width="800" height="230" fill="#a8a29e"/><ellipse cx="628.7" cy="261.8" rx="16.2" ry="1.7" fill="#00000022"/><ellipse cx="568.9" cy="309.3" rx="21.4" ry="3.4" fill="#00000022"/><ellipse cx="411.4" cy="223.5" rx="5" ry="1.6" fill="#00000022"/><ellipse cx="266.4" cy="445.6" rx="17" ry="2" fill="#00000022"/><ellipse cx="616" cy="344.7" rx="9.7" ry="2.2" fill="#00000022"/><ellipse cx="634.5" cy="231" rx="6.6" ry="1.2" fill="#00000022"/><ellipse cx="145.5" cy="448.1" rx="21.8" ry="2.2" fill="#00000022"/><ellipse cx="233.1" cy="322.2" rx="17.3" ry="1.4" fill="#00000022"/><ellipse cx="113.2" cy="431.8" rx="4.7" ry="2.8" fill="#00000022"/><ellipse cx="208.8" cy="443.6" rx="12.6" ry="3.8" fill="#00000022"/><ellipse cx="660.2" cy="363.1" rx="18.7" ry="1.5" fill="#00000022"/><ellipse cx="249.1" cy="390.5" rx="17" ry="2.9" fill="#00000022"/><ellipse cx="348.4" cy="394.9" rx="20.5" ry="1.3" fill="#00000022"/><ellipse cx="450.2" cy="429" rx="12.2" ry="2.3" fill="#00000022"/><ellipse cx="395.8" cy="315.4" rx="10.9" ry="2.6" fill="#00000022"/><ellipse cx="206.2" cy="310.9" rx="7.9" ry="1.2" fill="#00000022"/><ellipse cx="136.3" cy="274.9" rx="5.5" ry="2.9" fill="#00000022"/><ellipse cx="442.9" cy="394.5" rx="20.7" ry="1.4" fill="#00000022"/><ellipse cx="515.7" cy="321.9" rx="15.7" ry="3.2" fill="#00000022"/><ellipse cx="329.7" cy="297.8" rx="10.9" ry="1.7" fill="#00000022"/><ellipse cx="146.8" cy="377.4" rx="13" ry="3.8" fill="#00000022"/><ellipse cx="269.4" cy="354.4" rx="4.8" ry="2.5" fill="#00000022"/><ellipse cx="479.9" cy="290.3" rx="5.2" ry="2" fill="#00000022"/><ellipse cx="709.4" cy="231.4" rx="11.3" ry="3.2" fill="#00000022"/><ellipse cx="129.4" cy="320" rx="21.7" ry="2.3" fill="#00000022"/><ellipse cx="437.2" cy="267.8" rx="18.9" ry="1.5" fill="#00000022"/><ellipse cx="403.2" cy="403.4" rx="10.9" ry="1.6" fill="#00000022"/><ellipse cx="100.9" cy="221.4" rx="13.5" ry="1.2" fill="#00000022"/><ellipse cx="277.2" cy="278.5" rx="21.1" ry="2.2" fill="#00000022"/><ellipse cx="303.1" cy="444.9" rx="17.6" ry="3.1" fill="#00000022"/><ellipse cx="93.3" cy="393.7" rx="16.7" ry="1.3" fill="#00000022"/><ellipse cx="457.5" cy="246" rx="21.6" ry="1.2" fill="#00000022"/><ellipse cx="565.2" cy="361.4" rx="16.7" ry="3.1" fill="#00000022"/><ellipse cx="136.7" cy="340.6" rx="19.1" ry="3.9" fill="#00000022"/><ellipse cx="329.4" cy="402.9" rx="21.8" ry="2.6" fill="#00000022"/><ellipse cx="794" cy="291.1" rx="13.6" ry="2.4" fill="#00000022"/><ellipse cx="585.7" cy="394.6" rx="16.5" ry="1.5" fill="#00000022"/><ellipse cx="703.8" cy="330.6" rx="15.5" ry="2.6" fill="#00000022"/><ellipse cx="134.5" cy="273.6" rx="4.1" ry="3" fill="#00000022"/><ellipse cx="495.4" cy="385.1" rx="8.4" ry="1.5" fill="#00000022"/><path d="M60 430 L180 250 L640 250 L760 430 Z" fill="#cbd5e1"/><g stroke="#b45309" stroke-width="3"><line x1="70" y1="428" x2="185" y2="252"/><line x1="101" y1="428" x2="206" y2="252"/><line x1="132" y1="428" x2="227" y2="252"/><line x1="163" y1="428" x2="248" y2="252"/><line x1="194" y1="428" x2="269" y2="252"/><line x1="225" y1="428" x2="290" y2="252"/><line x1="256" y1="428" x2="311" y2="252"/><line x1="287" y1="428" x2="332" y2="252"/><line x1="318" y1="428" x2="353" y2="252"/><line x1="349" y1="428" x2="374" y2="252"/><line x1="380" y1="428" x2="395" y2="252"/><line x1="411" y1="428" x2="416" y2="252"/><line x1="442" y1="428" x2="437" y2="252"/><line x1="473" y1="428" x2="458" y2="252"/><line x1="504" y1="428" x2="479" y2="252"/><line x1="535" y1="428" x2="500" y2="252"/><line x1="566" y1="428" x2="521" y2="252"/><line x1="597" y1="428" x2="542" y2="252"/><line x1="628" y1="428" x2="563" y2="252"/><line x1="659" y1="428" x2="584" y2="252"/><line x1="690" y1="428" x2="605" y2="252"/><line x1="721" y1="428" x2="626" y2="252"/><line x1="178.7" y1="252" x2="641.3" y2="252"/><line x1="168" y1="268" x2="652" y2="268"/><line x1="157.3" y1="284" x2="662.7" y2="284"/><line x1="146.7" y1="300" x2="673.3" y2="300"/><line x1="136" y1="316" x2="684" y2="316"/><line x1="125.3" y1="332" x2="694.7" y2="332"/><line x1="114.7" y1="348" x2="705.3" y2="348"/><line x1="104" y1="364" x2="716" y2="364"/><line x1="93.3" y1="380" x2="726.7" y2="380"/><line x1="82.7" y1="396" x2="737.3" y2="396"/><line x1="72" y1="412" x2="748" y2="412"/><line x1="61.3" y1="428" x2="758.7" y2="428"/></g><path d="M60 430 L180 250 L180 220 L60 400 Z" fill="#d6a75c"/><path d="M640 250 L760 430 L760 400 L640 220 Z" fill="#c08a3e"/><g transform="translate(700 220) scale(0.55)"><rect x="-70" y="-28" width="140" height="22" rx="4" fill="#dc2626"/><circle cx="-50" cy="-6" r="10" fill="#111827"/><circle cx="-20" cy="-6" r="10" fill="#111827"/><circle cx="20" cy="-6" r="10" fill="#111827"/><circle cx="50" cy="-6" r="10" fill="#111827"/><rect x="-40" y="-70" width="70" height="42" rx="4" fill="#ef4444"/><rect x="10" y="-64" width="18" height="18" fill="#bfdbfe"/><line x1="0" y1="-70" x2="-160" y2="-347.1" stroke="#dc2626" stroke-width="9"/><line x1="-17.3" y1="-87.1" x2="-5.3" y2="-97.1" stroke="#b91c1c" stroke-width="1.5"/><line x1="-30.7" y1="-110.2" x2="-18.7" y2="-120.2" stroke="#b91c1c" stroke-width="1.5"/><line x1="-44" y1="-133.3" x2="-32" y2="-143.3" stroke="#b91c1c" stroke-width="1.5"/><line x1="-57.3" y1="-156.4" x2="-45.3" y2="-166.4" stroke="#b91c1c" stroke-width="1.5"/><line x1="-70.7" y1="-179.5" x2="-58.7" y2="-189.5" stroke="#b91c1c" stroke-width="1.5"/><line x1="-84" y1="-202.6" x2="-72" y2="-212.6" stroke="#b91c1c" stroke-width="1.5"/><line x1="-97.3" y1="-225.7" x2="-85.3" y2="-235.7" stroke="#b91c1c" stroke-width="1.5"/><line x1="-110.7" y1="-248.8" x2="-98.7" y2="-258.8" stroke="#b91c1c" stroke-width="1.5"/><line x1="-124" y1="-271.8" x2="-112" y2="-281.8" stroke="#b91c1c" stroke-width="1.5"/><line x1="-137.3" y1="-294.9" x2="-125.3" y2="-304.9" stroke="#b91c1c" stroke-width="1.5"/><line x1="-150.7" y1="-318" x2="-138.7" y2="-328" stroke="#b91c1c" stroke-width="1.5"/><line x1="-160" y1="-347.1" x2="-160" y2="-277.1" stroke="#111827" stroke-width="1.5"/><path d="M-164 -277.1 l8 0 l-2 8 l-4 0 Z" fill="#facc15"/><g transform="translate(-160 -269.1)"><g stroke="#b45309" stroke-width="3"><line x1="-40" y1="0" x2="40" y2="0"/><line x1="-40" y1="6" x2="40" y2="6"/><line x1="-40" y1="12" x2="40" y2="12"/><line x1="-40" y1="18" x2="40" y2="18"/></g></g><rect x="-90" y="-10" width="16" height="10" fill="#6b7280"/><rect x="74" y="-10" width="16" height="10" fill="#6b7280"/></g><g transform="translate(444.6 317.1) scale(0.9)"><rect x="-4" y="-18" width="3.5" height="18" fill="#1e3a8a"/><rect x="0.5" y="-18" width="3.5" height="18" fill="#1e3a8a"/><rect x="-6" y="-38" width="12" height="21" rx="3" fill="#f97316"/><rect x="-6" y="-31" width="12" height="2.5" fill="#e5e7eb"/><rect x="-9" y="-36" width="3" height="14" rx="1.5" fill="#f97316"/><rect x="6" y="-36" width="3" height="14" rx="1.5" fill="#f97316"/><circle cx="0" cy="-43" r="5" fill="#fcd9b6"/><path d="M-7 -44 A7 7 0 0 1 7 -44 Z" fill="#ffffff"/><rect x="-8" y="-45" width="16" height="2" fill="#ffffff"/></g><g transform="translate(562.8 322.4) scale(0.9)"><rect x="-4" y="-18" width="3.5" height="18" fill="#1e3a8a"/><rect x="0.5" y="-18" width="3.5" height="18" fill="#1e3a8a"/><rect x="-6" y="-38" width="12" height="21" rx="3" fill="#eab308"/><rect x="-6" y="-31" width="12" height="2.5" fill="#e5e7eb"/><rect x="-9" y="-36" width="3" height="14" rx="1.5" fill="#eab308"/><rect x="6" y="-36" width="3" height="14" rx="1.5" fill="#eab308"/><circle cx="0" cy="-43" r="5" fill="#fcd9b6"/><path d="M-7 -44 A7 7 0 0 1 7 -44 Z" fill="#fde047"/><rect x="-8" y="-45" width="16" height="2" fill="#fde047"/></g><g transform="translate(497.9 351.1) scale(1.1)"><rect x="-4" y="-18" width="3.5" height="18" fill="#1e3a8a"/><rect x="0.5" y="-18" width="3.5" height="18" fill="#1e3a8a"/><rect x="-6" y="-38" width="12" height="21" rx="3" fill="#22c55e"/><rect x="-6" y="-31" width="12" height="2.5" fill="#e5e7eb"/><rect x="-9" y="-36" width="3" height="14" rx="1.5" fill="#22c55e"/><rect x="6" y="-36" width="3" height="14" rx="1.5" fill="#22c55e"/><circle cx="0" cy="-43" r="5" fill="#fcd9b6"/><path d="M-7 -44 A7 7 0 0 1 7 -44 Z" fill="#fde047"/><rect x="-8" y="-45" width="16" height="2" fill="#fde047"/></g><g transform="translate(564 313.8) scale(0.9)"><rect x="-4" y="-18" width="3.5" height="18" fill="#1e3a8a"/><rect x="0.5" y="-18" width="3.5" height="18" fill="#1e3a8a"/><rect x="-6" y="-38" width="12" height="21" rx="3" fill="#f97316"/><rect x="-6" y="-31" width="12" height="2.5" fill="#e5e7eb"/><rect x="-9" y="-36" width="3" height="14" rx="1.5" fill="#f97316"/><rect x="6" y="-36" width="3" height="14" rx="1.5" fill="#f97316"/><circle cx="0" cy="-43" r="5" fill="#fcd9b6"/><path d="M-7 -44 A7 7 0 0 1 7 -44 Z" fill="#ffffff"/><rect x="-8" y="-45" width="16" height="2" fill="#ffffff"/></g><g transform="translate(285.3 362.5) scale(1.1)"><rect x="-4" y="-18" width="3.5" height="18" fill="#1e3a8a"/><rect x="0.5" y="-18" width="3.5" height="18" fill="#1e3a8a"/><rect x="-6" y="-38" width="12" height="21" rx="3" fill="#f97316"/><rect x="-6" y="-31" width="12" height="2.5" fill="#e5e7eb"/><rect x="-9" y="-36" width="3" height="14" rx="1.5" fill="#f97316"/><rect x="6" y="-36" width="3" height="14" rx="1.5" fill="#f97316"/><circle cx="0" cy="-43" r="5" fill="#fcd9b6"/><path d="M-7 -44 A7 7 0 0 1 7 -44 Z" fill="#fde047"/><rect x="-8" y="-45" width="16" height="2" fill="#fde047"/></g><g transform="translate(616.6 350.2) scale(1)"><rect x="-4" y="-18" width="3.5" height="18" fill="#1e3a8a"/><rect x="0.5" y="-18" width="3.5" height="18" fill="#1e3a8a"/><rect x="-6" y="-38" width="12" height="21" rx="3" fill="#eab308"/><rect x="-6" y="-31" width="12" height="2.5" fill="#e5e7eb"/><rect x="-9" y="-36" width="3" height="14" rx="1.5" fill="#eab308"/><rect x="6" y="-36" width="3" height="14" rx="1.5" fill="#eab308"/><circle cx="0" cy="-43" r="5" fill="#fcd9b6"/><path d="M-7 -44 A7 7 0 0 1 7 -44 Z" fill="#fde047"/><rect x="-8" y="-45" width="16" height="2" fill="#fde047"/></g><rect width="800" height="450" fill="#1e293b" opacity="0.22"/><g stroke="#e2e8f0" stroke-width="1.2" opacity="0.55"><line x1="189.3" y1="319.9" x2="182.3" y2="339.9"/><line x1="-17.8" y1="88.7" x2="-24.8" y2="108.7"/><line x1="671.4" y1="444" x2="664.4" y2="464"/><line x1="164.3" y1="215.7" x2="157.3" y2="235.7"/><line x1="-51.5" y1="47.6" x2="-58.5" y2="67.6"/><line x1="361.7" y1="348.9" x2="354.7" y2="368.9"/><line x1="693.8" y1="199.7" x2="686.8" y2="219.7"/><line x1="261.5" y1="395.7" x2="254.5" y2="415.7"/><line x1="669.7" y1="29" x2="662.7" y2="49"/><line x1="856.5" y1="19.3" x2="849.5" y2="39.3"/><line x1="205.8" y1="81.3" x2="198.8" y2="101.3"/><line x1="632" y1="33" x2="625" y2="53"/><line x1="175.4" y1="349.2" x2="168.4" y2="369.2"/><line x1="580.1" y1="179.4" x2="573.1" y2="199.4"/><line x1="545.4" y1="35.3" x2="538.4" y2="55.3"/><line x1="-29.4" y1="400.1" x2="-36.4" y2="420.1"/><line x1="772.4" y1="322.3" x2="765.4" y2="342.3"/><line x1="324.9" y1="440.6" x2="317.9" y2="460.6"/><line x1="545.8" y1="404.5" x2="538.8" y2="424.5"/><line x1="737.7" y1="121" x2="730.7" y2="141"/><line x1="169.7" y1="370" x2="162.7" y2="390"/><line x1="295.1" y1="99.3" x2="288.1" y2="119.3"/><line x1="59.5" y1="129.6" x2="52.5" y2="149.6"/><line x1="466.2" y1="102.8" x2="459.2" y2="122.8"/><line x1="649.2" y1="437.5" x2="642.2" y2="457.5"/><line x1="684.9" y1="198.1" x2="677.9" y2="218.1"/><line x1="184.6" y1="410.1" x2="177.6" y2="430.1"/><line x1="619.9" y1="302.9" x2="612.9" y2="322.9"/><line x1="682.3" y1="347.7" x2="675.3" y2="367.7"/><line x1="642.2" y1="71.8" x2="635.2" y2="91.8"/><line x1="175.6" y1="344" x2="168.6" y2="364"/><line x1="432.2" y1="11.9" x2="425.2" y2="31.9"/><line x1="756.4" y1="172.3" x2="749.4" y2="192.3"/><line x1="69.4" y1="418.1" x2="62.4" y2="438.1"/><line x1="211.2" y1="110.4" x2="204.2" y2="130.4"/><line x1="52.4" y1="377.6" x2="45.4" y2="397.6"/><line x1="102.2" y1="210.9" x2="95.2" y2="230.9"/><line x1="816" y1="183.1" x2="809" y2="203.1"/><line x1="688.7" y1="165" x2="681.7" y2="185"/><line x1="323.7" y1="137.8" x2="316.7" y2="157.8"/><line x1="716.7" y1="118.8" x2="709.7" y2="138.8"/><line x1="764.8" y1="438.6" x2="757.8" y2="458.6"/><line x1="0.4" y1="239.2" x2="-6.6" y2="259.2"/><line x1="116.6" y1="183" x2="109.6" y2="203"/><line x1="-37.5" y1="51" x2="-44.5" y2="71"/><line x1="859.1" y1="216.9" x2="852.1" y2="236.9"/><line x1="111.1" y1="388.8" x2="104.1" y2="408.8"/><line x1="304.6" y1="9.8" x2="297.6" y2="29.8"/><line x1="336.4" y1="404.4" x2="329.4" y2="424.4"/><line x1="630.3" y1="356.4" x2="623.3" y2="376.4"/><line x1="14.4" y1="193.3" x2="7.4" y2="213.3"/><line x1="80.3" y1="440.6" x2="73.3" y2="460.6"/><line x1="581.7" y1="271.1" x2="574.7" y2="291.1"/><line x1="824" y1="47.3" x2="817" y2="67.3"/><line x1="22.4" y1="272" x2="15.4" y2="292"/><line x1="838.6" y1="341.1" x2="831.6" y2="361.1"/><line x1="536.1" y1="347.8" x2="529.1" y2="367.8"/><line x1="-52.7" y1="118.5" x2="-59.7" y2="138.5"/><line x1="299.6" y1="125.1" x2="292.6" y2="145.1"/><line x1="-14.6" y1="139.3" x2="-21.6" y2="159.3"/><line x1="7.8" y1="448.2" x2="0.8" y2="468.2"/><line x1="143.8" y1="69.9" x2="136.8" y2="89.9"/><line x1="751.2" y1="64.3" x2="744.2" y2="84.3"/><line x1="755.8" y1="89.8" x2="748.8" y2="109.8"/><line x1="422.4" y1="378.7" x2="415.4" y2="398.7"/><line x1="419.2" y1="17.9" x2="412.2" y2="37.9"/><line x1="145.3" y1="409.4" x2="138.3" y2="429.4"/><line x1="87.3" y1="95.3" x2="80.3" y2="115.3"/><line x1="548.6" y1="116.3" x2="541.6" y2="136.3"/><line x1="757.7" y1="39.7" x2="750.7" y2="59.7"/><line x1="-29.5" y1="389.8" x2="-36.5" y2="409.8"/><line x1="458.1" y1="349.5" x2="451.1" y2="369.5"/><line x1="525.7" y1="160.1" x2="518.7" y2="180.1"/><line x1="185.3" y1="199.5" x2="178.3" y2="219.5"/><line x1="644.6" y1="276.4" x2="637.6" y2="296.4"/><line x1="148.2" y1="135" x2="141.2" y2="155"/><line x1="687.6" y1="62.9" x2="680.6" y2="82.9"/><line x1="107.7" y1="415.6" x2="100.7" y2="435.6"/><line x1="584" y1="57.5" x2="577" y2="77.5"/><line x1="215.3" y1="178.8" x2="208.3" y2="198.8"/><line x1="274.4" y1="299.9" x2="267.4" y2="319.9"/><line x1="165.5" y1="443.6" x2="158.5" y2="463.6"/><line x1="238.1" y1="212.8" x2="231.1" y2="232.8"/><line x1="205.4" y1="164.7" x2="198.4" y2="184.7"/><line x1="796" y1="233.8" x2="789" y2="253.8"/><line x1="87.3" y1="211.5" x2="80.3" y2="231.5"/><line x1="331.7" y1="243.2" x2="324.7" y2="263.2"/><line x1="17.7" y1="77.1" x2="10.7" y2="97.1"/><line x1="-39.1" y1="56.8" x2="-46.1" y2="76.8"/><line x1="75.1" y1="333.6" x2="68.1" y2="353.6"/><line x1="636.2" y1="359.6" x2="629.2" y2="379.6"/><line x1="154.8" y1="195.2" x2="147.8" y2="215.2"/><line x1="710.2" y1="296" x2="703.2" y2="316"/><line x1="832.6" y1="339.2" x2="825.6" y2="359.2"/><line x1="606.5" y1="74.1" x2="599.5" y2="94.1"/><line x1="852.9" y1="261.6" x2="845.9" y2="281.6"/><line x1="757.5" y1="382" x2="750.5" y2="402"/><line x1="291" y1="418.3" x2="284" y2="438.3"/><line x1="-24.3" y1="359.9" x2="-31.3" y2="379.9"/><line x1="139.4" y1="167.6" x2="132.4" y2="187.6"/><line x1="626.1" y1="421" x2="619.1" y2="441"/><line x1="572.9" y1="231.7" x2="565.9" y2="251.7"/><line x1="841.9" y1="338.9" x2="834.9" y2="358.9"/><line x1="358.6" y1="414.7" x2="351.6" y2="434.7"/><line x1="206.8" y1="160.3" x2="199.8" y2="180.3"/><line x1="500.4" y1="200.5" x2="493.4" y2="220.5"/><line x1="782.1" y1="337.1" x2="775.1" y2="357.1"/><line x1="-41.2" y1="86.4" x2="-48.2" y2="106.4"/><line x1="691.1" y1="58.2" x2="684.1" y2="78.2"/><line x1="842.1" y1="380" x2="835.1" y2="400"/><line x1="751.3" y1="215.7" x2="744.3" y2="235.7"/><line x1="494.1" y1="44.9" x2="487.1" y2="64.9"/><line x1="-25.4" y1="269.4" x2="-32.4" y2="289.4"/><line x1="458.9" y1="5.4" x2="451.9" y2="25.4"/><line x1="438.8" y1="444.4" x2="431.8" y2="464.4"/><line x1="420.2" y1="12.4" x2="413.2" y2="32.4"/><line x1="543.2" y1="57.4" x2="536.2" y2="77.4"/><line x1="-49.5" y1="90.4" x2="-56.5" y2="110.4"/><line x1="455.5" y1="370.4" x2="448.5" y2="390.4"/><line x1="802.5" y1="414.8" x2="795.5" y2="434.8"/><line x1="648.6" y1="155" x2="641.6" y2="175"/><line x1="773" y1="228.9" x2="766" y2="248.9"/><line x1="112.5" y1="168.6" x2="105.5" y2="188.6"/><line x1="408.7" y1="279" x2="401.7" y2="299"/><line x1="30.1" y1="267.6" x2="23.1" y2="287.6"/><line x1="856.8" y1="135.6" x2="849.8" y2="155.6"/><line x1="478.2" y1="253.2" x2="471.2" y2="273.2"/><line x1="786.3" y1="57.3" x2="779.3" y2="77.3"/><line x1="640.3" y1="428.5" x2="633.3" y2="448.5"/><line x1="43.1" y1="86.4" x2="36.1" y2="106.4"/><line x1="803.7" y1="66.7" x2="796.7" y2="86.7"/><line x1="715.9" y1="252.8" x2="708.9" y2="272.8"/><line x1="67.9" y1="293.8" x2="60.9" y2="313.8"/><line x1="253.7" y1="351.8" x2="246.7" y2="371.8"/><line x1="802.3" y1="156.3" x2="795.3" y2="176.3"/><line x1="212.2" y1="274" x2="205.2" y2="294"/><line x1="774.1" y1="80" x2="767.1" y2="100"/><line x1="111.8" y1="277.7" x2="104.8" y2="297.7"/><line x1="196.9" y1="70.7" x2="189.9" y2="90.7"/><line x1="700.9" y1="427.4" x2="693.9" y2="447.4"/><line x1="-21.9" y1="106.9" x2="-28.9" y2="126.9"/><line x1="675.1" y1="359.7" x2="668.1" y2="379.7"/><line x1="330.4" y1="55.2" x2="323.4" y2="75.2"/><line x1="408.4" y1="45.3" x2="401.4" y2="65.3"/><line x1="173.5" y1="30.9" x2="166.5" y2="50.9"/><line x1="135.6" y1="94" x2="128.6" y2="114"/><line x1="67.4" y1="369.1" x2="60.4" y2="389.1"/><line x1="719.8" y1="435.7" x2="712.8" y2="455.7"/><line x1="-38.6" y1="193" x2="-45.6" y2="213"/><line x1="-30.2" y1="86.6" x2="-37.2" y2="106.6"/><line x1="571.2" y1="79.6" x2="564.2" y2="99.6"/><line x1="369.1" y1="285.1" x2="362.1" y2="305.1"/><line x1="391.9" y1="193.8" x2="384.9" y2="213.8"/><line x1="-24.8" y1="153.1" x2="-31.8" y2="173.1"/><line x1="-47.6" y1="148.5" x2="-54.6" y2="168.5"/><line x1="240.4" y1="37.6" x2="233.4" y2="57.6"/><line x1="562.1" y1="154.7" x2="555.1" y2="174.7"/><line x1="167.2" y1="254.4" x2="160.2" y2="274.4"/><line x1="-4" y1="94.8" x2="-11" y2="114.8"/><line x1="-2.6" y1="108" x2="-9.6" y2="128"/><line x1="551.7" y1="449.7" x2="544.7" y2="469.7"/><line x1="126.4" y1="209.5" x2="119.4" y2="229.5"/><line x1="271.7" y1="104.1" x2="264.7" y2="124.1"/><line x1="301.4" y1="233.2" x2="294.4" y2="253.2"/><line x1="626.8" y1="150.7" x2="619.8" y2="170.7"/><line x1="693.4" y1="234.9" x2="686.4" y2="254.9"/><line x1="76.8" y1="158" x2="69.8" y2="178"/><line x1="571.9" y1="112.1" x2="564.9" y2="132.1"/><line x1="466.7" y1="222.6" x2="459.7" y2="242.6"/><line x1="594.1" y1="181.9" x2="587.1" y2="201.9"/><line x1="603.8" y1="110.1" x2="596.8" y2="130.1"/><line x1="584.1" y1="351.1" x2="577.1" y2="371.1"/><line x1="128.9" y1="316.5" x2="121.9" y2="336.5"/><line x1="75.4" y1="92.9" x2="68.4" y2="112.9"/><line x1="605.9" y1="303.9" x2="598.9" y2="323.9"/><line x1="432.5" y1="433.8" x2="425.5" y2="453.8"/><line x1="268.9" y1="293.2" x2="261.9" y2="313.2"/><line x1="770.4" y1="6.3" x2="763.4" y2="26.3"/><line x1="106.8" y1="260.8" x2="99.8" y2="280.8"/><line x1="231.9" y1="371.1" x2="224.9" y2="391.1"/><line x1="424.1" y1="87.9" x2="417.1" y2="107.9"/><line x1="385.9" y1="380.7" x2="378.9" y2="400.7"/><line x1="577.8" y1="388.5" x2="570.8" y2="408.5"/><line x1="171" y1="346.1" x2="164" y2="366.1"/><line x1="661.3" y1="13.5" x2="654.3" y2="33.5"/><line x1="803.5" y1="141.9" x2="796.5" y2="161.9"/><line x1="6.6" y1="281.2" x2="-0.4" y2="301.2"/><line x1="145.3" y1="248.1" x2="138.3" y2="268.1"/><line x1="363.1" y1="320.4" x2="356.1" y2="340.4"/><line x1="197.5" y1="368.2" x2="190.5" y2="388.2"/><line x1="-30.6" y1="287.9" x2="-37.6" y2="307.9"/><line x1="274.6" y1="241" x2="267.6" y2="261"/><line x1="143.9" y1="196.7" x2="136.9" y2="216.7"/><line x1="595" y1="352.4" x2="588" y2="372.4"/><line x1="327.9" y1="131.9" x2="320.9" y2="151.9"/><line x1="769.7" y1="203.5" x2="762.7" y2="223.5"/><line x1="269.7" y1="142" x2="262.7" y2="162"/><line x1="260" y1="61.7" x2="253" y2="81.7"/><line x1="592.9" y1="25.3" x2="585.9" y2="45.3"/><line x1="282" y1="14.7" x2="275" y2="34.7"/><line x1="130.8" y1="308.3" x2="123.8" y2="328.3"/><line x1="691.7" y1="304.6" x2="684.7" y2="324.6"/><line x1="200.1" y1="409.1" x2="193.1" y2="429.1"/><line x1="676.3" y1="190" x2="669.3" y2="210"/><line x1="-28.6" y1="111.3" x2="-35.6" y2="131.3"/><line x1="91.4" y1="399.4" x2="84.4" y2="419.4"/><line x1="458.1" y1="351.1" x2="451.1" y2="371.1"/><line x1="107.9" y1="384.2" x2="100.9" y2="404.2"/><line x1="320" y1="22.2" x2="313" y2="42.2"/><line x1="425.6" y1="60" x2="418.6" y2="80"/><line x1="578.7" y1="416.3" x2="571.7" y2="436.3"/><line x1="352.1" y1="276.1" x2="345.1" y2="296.1"/><line x1="626.8" y1="350.8" x2="619.8" y2="370.8"/><line x1="638.4" y1="29.2" x2="631.4" y2="49.2"/><line x1="803.6" y1="5.5" x2="796.6" y2="25.5"/><line x1="691.4" y1="426.7" x2="684.4" y2="446.7"/><line x1="-58.3" y1="228.9" x2="-65.3" y2="248.9"/><line x1="320.1" y1="287.1" x2="313.1" y2="307.1"/><line x1="33" y1="9.6" x2="26" y2="29.6"/><line x1="633.7" y1="177.9" x2="626.7" y2="197.9"/><line x1="52.4" y1="174.1" x2="45.4" y2="194.1"/><line x1="546" y1="87" x2="539" y2="107"/><line x1="483.2" y1="10.5" x2="476.2" y2="30.5"/><line x1="726.3" y1="426.4" x2="719.3" y2="446.4"/><line x1="-31.6" y1="189.5" x2="-38.6" y2="209.5"/><line x1="564.5" y1="414.8" x2="557.5" y2="434.8"/><line x1="770.2" y1="134.6" x2="763.2" y2="154.6"/><line x1="134.9" y1="298.6" x2="127.9" y2="318.6"/><line x1="240.9" y1="203.2" x2="233.9" y2="223.2"/><line x1="349.7" y1="261.6" x2="342.7" y2="281.6"/><line x1="211.4" y1="329.4" x2="204.4" y2="349.4"/><line x1="185.8" y1="440.2" x2="178.8" y2="460.2"/><line x1="51" y1="32.5" x2="44" y2="52.5"/><line x1="663.6" y1="313.2" x2="656.6" y2="333.2"/><line x1="295.7" y1="359.9" x2="288.7" y2="379.9"/><line x1="857" y1="295.3" x2="850" y2="315.3"/><line x1="583.2" y1="173.6" x2="576.2" y2="193.6"/><line x1="99.2" y1="15.8" x2="92.2" y2="35.8"/><line x1="-30.8" y1="369.5" x2="-37.8" y2="389.5"/><line x1="400.2" y1="152.7" x2="393.2" y2="172.7"/><line x1="619.2" y1="50.4" x2="612.2" y2="70.4"/><line x1="829.2" y1="212.8" x2="822.2" y2="232.8"/><line x1="836.2" y1="138.7" x2="829.2" y2="158.7"/><line x1="79.9" y1="191.6" x2="72.9" y2="211.6"/><line x1="187" y1="207.6" x2="180" y2="227.6"/><line x1="331.4" y1="10.8" x2="324.4" y2="30.8"/><line x1="210.3" y1="439.1" x2="203.3" y2="459.1"/><line x1="377.1" y1="223.4" x2="370.1" y2="243.4"/><line x1="269" y1="215.1" x2="262" y2="235.1"/><line x1="494.2" y1="352.6" x2="487.2" y2="372.6"/><line x1="378.2" y1="28" x2="371.2" y2="48"/><line x1="510.7" y1="254.9" x2="503.7" y2="274.9"/><line x1="156.8" y1="340.2" x2="149.8" y2="360.2"/><line x1="267.2" y1="128" x2="260.2" y2="148"/><line x1="43.8" y1="261.1" x2="36.8" y2="281.1"/><line x1="-29.7" y1="82.2" x2="-36.7" y2="102.2"/><line x1="755.6" y1="444.7" x2="748.6" y2="464.7"/><line x1="-42.6" y1="60.9" x2="-49.6" y2="80.9"/><line x1="-15.9" y1="118.7" x2="-22.9" y2="138.7"/><line x1="657.6" y1="226.1" x2="650.6" y2="246.1"/></g><ellipse cx="506.6" cy="396.3" rx="73.7" ry="4.7" fill="#cbd5e1" opacity="0.35"/><ellipse cx="399.8" cy="431.3" rx="57.3" ry="5.5" fill="#cbd5e1" opacity="0.35"/><ellipse cx="39" cy="432.3" rx="38.5" ry="6.6" fill="#cbd5e1" opacity="0.35"/><ellipse cx="780.8" cy="426.6" rx="33.7" ry="3" fill="#cbd5e1" opacity="0.35"/><ellipse cx="130.9" cy="433.5" rx="30.2" ry="4.4" fill="#cbd5e1" opacity="0.35"/><ellipse cx="662.8" cy="433" rx="60" ry="4.7" fill="#cbd5e1" opacity="0.35"/><ellipse cx="463" cy="422.4" rx="68.2" ry="3.5" fill="#cbd5e1" opacity="0.35"/><ellipse cx="88.6" cy="403" rx="50.1" ry="6.8" fill="#cbd5e1" opacity="0.35"/><rect width="800" height="450" filter="url(#grain)" opacity="0.07"/><rect width="800" height="450" fill="url(#vignette)"/></svg>
