<svg xmlns="http://www.w3.org/2000/svg" viewBox="0 0 800 450" width="800" height="450" preserveAspectRatio="xMidYMid slice"><defs><linearGradient id="sky" x1="0" y1="0" x2="0" y2="1"><stop offset="0" stop-color="#94a3b8"/><stop offset="0.6" stop-color="#cbd5e1"/><stop offset="1" stop-color="#e2e8f0"/></linearGradient>
<linearGradient id="shade" x1="0" y1="0" x2="0" y2="1"><stop offset="0" stop-color="#000" stop-opacity="0"/><stop offset="1" stop-color="#000" stop-opacity="0.25"/></linearGradient>
<radialGradient id="vignette" cx="0.5" cy="0.5" r="0.75"><stop offset="0.6" stop-color="#000" stop-opacity="0"/><stop offset="1" stop-color="#000" stop-opacity="0.35"/></radialGradient>
<filter id="grain"><feTurbulence type="fractalNoise" baseFrequency="0.85" numOctaves="2" stitchTiles="stitch"/><feColorMatrix type="saturate" values="0"/></filter></defs>
<rect width="800" height="450" fill="url(#sky)"/><g opacity="0.95" fill="#f1f5f9"><ellipse cx="359" cy="101.9" rx="94.9" ry="28.5"/><ellipse cx="406.5" cy="82.9" rx="56.9" ry="31.6"/><ellipse cx="314.7" cy="92.4" rx="47.5" ry="23.7"/></g><g opacity="0.95" fill="#f1f5f9"><ellipse cx="766.1" cy="26.2" rx="55.8" ry="16.8"/><ellipse cx="794" cy="15" rx="33.5" ry="18.6"/><ellipse cx="740" cy="20.6" rx="27.9" ry="14"/></g><g opacity="0.95" fill="#f1f5f9"><ellipse cx="285.7" cy="50.8" rx="43.5" ry="13"/><ellipse cx="307.5" cy="42.1" rx="26.1" ry="14.5"/><ellipse cx="265.4" cy="46.5" rx="21.7" ry="10.9"/></g><g opacity="0.95" fill="#f1f5f9"><ellipse cx="367.6" cy="93.1" rx="95.2" ry="28.6"/><ellipse cx="415.2" cy="74" rx="57.1" ry="31.7"/><ellipse cx="323.2" cy="83.6" rx="47.6" ry="23.8"/></g><g opacity="0.95" fill="#f1f5f9"><ellipse cx="397.3" cy="90.2" rx="109" ry="32.7"/><ellipse cx="451.8" cy="68.4" rx="65.4" ry="36.3"/><ellipse cx="346.4" cy="79.3" rx="54.5" ry="27.2"/></g><g opacity="0.95" fill="#f1f5f9"><ellipse cx="209.2" cy="93.3" rx="88.5" ry="26.5"/><ellipse cx="253.4" cy="75.6" rx="53.1" ry="29.5"/><ellipse cx="167.9" cy="84.5" rx="44.2" ry="22.1"/></g><g opacity="0.95" fill="#f1f5f9"><ellipse cx="590.2" cy="84" rx="45.5" ry="13.6"/><ellipse cx="612.9" cy="74.9" rx="27.3" ry="15.2"/><ellipse cx="569" cy="79.4" rx="22.7" ry="11.4"/></g><path d="M0 220 L0 137.6 L80 140.8 L160 146 L240 138.8 L320 148.7 L400 187.4 L480 188.1 L560 134.8 L640 151.6 L720 148.4 L800 154 L800 220 Z" fill="#64748b" opacity="0.45"/><path d="M0 220 L0 175.7 L60 181.1 L120 196.3 L180 177.8 L240 201.3 L300 202.5 L360 209 L420 207.1 L480 201.6 L540 201.5 L600 195.6 L660 186 L720 190 L780 204.9 L800 220 Z" fill="#4d7c0f" opacity="0.55"/><rect x="0" y="220" width="800" height="230" fill="#a16207"/><ellipse cx="417.5" cy="342.9" rx="9" ry="2.4" fill="#00000022"/><ellipse cx="97" cy="402.7" rx="8.6" ry="2.6" fill="#00000022"/><ellipse cx="504.5" cy="284.3" rx="6.6" ry="1.9" fill="#00000022"/><ellipse cx="798.6" cy="220.6" rx="9.5" ry="3.6" fill="#00000022"/><ellipse cx="388.2" cy="310.2" rx="7.4" ry="3.7" fill="#00000022"/><ellipse cx="722.1" cy="370.8" rx="21.7" ry="1.3" fill="#00000022"/><ellipse cx="0.5" cy="360.9" rx="10.1" ry="1.5" fill="#00000022"/><ellipse cx="509.1" cy="305.7" rx="15.2" ry="2.5" fill="#00000022"/><ellipse cx="766.9" cy="263" rx="17.1" ry="3.1" fill="#00000022"/><ellipse cx="735.5" cy="264.6" rx="20.9" ry="1.1" fill="#00000022"/><ellipse cx="205.9" cy="322.9" rx="8.6" ry="2.9" fill="#00000022"/><ellipse cx="755.2" cy="356.3" rx="8.7" ry="3.5" fill="#00000022"/><ellipse cx="434.9" cy="275.3" rx="20.9" ry="2.8" fill="#00000022"/><ellipse cx="478.3" cy="449.8" rx="4.7" ry="2.8" fill="#00000022"/><ellipse cx="676" cy="289.4" rx="6.1" ry="1.3" fill="#00000022"/><ellipse cx="101" cy="221.9" rx="4.7" ry="1.1" fill="#00000022"/><ellipse cx="191.1" cy="257.5" rx="12.2" ry="4" fill="#00000022"/><ellipse cx="635.7" cy="440.7" rx="16.5" ry="3.6" fill="#00000022"/><ellipse cx="438" cy="320.4" rx="18.3" ry="1.6" fill="#00000022"/><ellipse cx="602.8" cy="421" rx="18.2" ry="3.5" fill="#00000022"/><ellipse cx="553.5" cy="393.7" rx="10.3" ry="2.4" fill="#00000022"/><ellipse cx="525.2" cy="327.5" rx="7.8" ry="3.2" fill="#00000022"/><ellipse cx="158.9" cy="324.1" rx="14.6" ry="1.9" fill="#00000022"/><ellipse cx="154.6" cy="244.8" rx="8.5" ry="1.1" fill="#00000022"/><ellipse cx="682.4" cy="264.6" rx="8.6" ry="3.2" fill="#00000022"/><ellipse cx="607" cy="344.6" rx="17.2" ry="2" fill="#00000022"/><ellipse cx="546.3" cy="348.1" rx="16.1" ry="3.4" fill="#00000022"/><ellipse cx="567.2" cy="278" rx="19.5" ry="3.6" fill="#00000022"/><ellipse cx="424.7" cy="221.1" rx="17.1" ry="3.1" fill="#00000022"/><ellipse cx="632.5" cy="237.4" rx="12.3" ry="3.3" fill="#00000022"/><ellipse cx="174.4" cy="438.5" rx="4.4" ry="2.3" fill="#00000022"/><ellipse cx="447.2" cy="299" rx="11.4" ry="3.1" fill="#00000022"/><ellipse cx="240.7" cy="310.3" rx="10.6" ry="3" fill="#00000022"/><ellipse cx="383.5" cy="396.4" rx="14.8" ry="1.9" fill="#00000022"/><ellipse cx="279.7" cy="382" rx="18.2" ry="1.7" fill="#00000022"/><ellipse cx="458.3" cy="269.3" rx="18" ry="2.6" fill="#00000022"/><ellipse cx="765.9" cy="283.3" rx="9.6" ry="2.4" fill="#00000022"/><ellipse cx="501" cy="294.4" rx="13.5" ry="2.1" fill="#00000022"/><ellipse cx="377.8" cy="396.8" rx="5.2" ry="1.9" fill="#00000022"/><ellipse cx="572.6" cy="270.7" rx="16.6" ry="2.1" fill="#00000022"/><g transform="translate(60 300)"><rect x="0" y="0" width="90" height="110" fill="#d4d4d8" stroke="#a1a1aa"/><rect x="0" y="100" width="130" height="18" fill="#a1a1aa"/></g><g transform="translate(155 300)"><rect x="0" y="0" width="90" height="110" fill="#d4d4d8" stroke="#a1a1aa"/><rect x="0" y="100" width="130" height="18" fill="#a1a1aa"/></g><g transform="translate(250 300)"><rect x="0" y="0" width="90" height="110" fill="#d4d4d8" stroke="#a1a1aa"/><rect x="0" y="100" width="130" height="18" fill="#a1a1aa"/></g><g transform="translate(345 300)"><rect x="0" y="0" width="90" height="110" fill="#d4d4d8" stroke="#a1a1aa"/><rect x="0" y="100" width="130" height="18" fill="#a1a1aa"/></g><g transform="translate(440 300)"><rect x="0" y="0" width="90" height="110" fill="#d4d4d8" stroke="#a1a1aa"/><rect x="0" y="100" width="130" height="18" fill="#a1a1aa"/></g><g transform="translate(535 300)"><rect x="0" y="0" width="90" height="110" fill="#d4d4d8" stroke="#a1a1aa"/><rect x="0" y="100" width="130" height="18" fill="#a1a1aa"/></g><g transform="translate(630 300)"><rect x="0" y="0" width="90" height="110" fill="#d4d4d8" stroke="#a1a1aa"/><rect x="0" y="100" width="130" height="18" fill="#a1a1aa"/></g><rect x="0" y="410" width="800" height="40" fill="#78716c"/><g transform="translate(680 300) scale(0.6)"><rect x="-70" y="-28" width="140" height="22" rx="4" fill="#dc2626"/><circle cx="-50" cy="-6" r="10" fill="#111827"/><circle cx="-20" cy="-6" r="10" fill="#111827"/><circle cx="20" cy="-6" r="10" fill="#111827"/><circle cx="50" cy="-6" r="10" fill="#111827"/><rect x="-40" y="-70" width="70" height="42" rx="4" fill="#ef4444"/><rect x="10" y="-64" width="18" height="18" fill="#bfdbfe"/><line x1="0" y1="-70" x2="-183.5" y2="-332.1" stroke="#dc2626" stroke-width="9"/><line x1="-19.3" y1="-85.8" x2="-7.3" y2="-95.8" stroke="#b91c1c" stroke-width="1.5"/><line x1="-34.6" y1="-107.7" x2="-22.6" y2="-117.7" stroke="#b91c1c" stroke-width="1.5"/><line x1="-49.9" y1="-129.5" x2="-37.9" y2="-139.5" stroke="#b91c1c" stroke-width="1.5"/><line x1="-65.2" y1="-151.4" x2="-53.2" y2="-161.4" stroke="#b91c1c" stroke-width="1.5"/><line x1="-80.5" y1="-173.2" x2="-68.5" y2="-183.2" stroke="#b91c1c" stroke-width="1.5"/><line x1="-95.8" y1="-195.1" x2="-83.8" y2="-205.1" stroke="#b91c1c" stroke-width="1.5"/><line x1="-111.1" y1="-216.9" x2="-99.1" y2="-226.9" stroke="#b91c1c" stroke-width="1.5"/><line x1="-126.4" y1="-238.8" x2="-114.4" y2="-248.8" stroke="#b91c1c" stroke-width="1.5"/><line x1="-141.7" y1="-260.6" x2="-129.7" y2="-270.6" stroke="#b91c1c" stroke-width="1.5"/><line x1="-157" y1="-282.4" x2="-145" y2="-292.4" stroke="#b91c1c" stroke-width="1.5"/><line x1="-172.2" y1="-304.3" x2="-160.2" y2="-314.3" stroke="#b91c1c" stroke-width="1.5"/><line x1="-183.5" y1="-332.1" x2="-183.5" y2="-272.1" stroke="#111827" stroke-width="1.5"/><path d="M-187.5 -272.1 l8 0 l-2 8 l-4 0 Z" fill="#facc15"/><g transform="translate(-183.5 -264.1)"><rect x="-45" y="0" width="90" height="70" fill="#e4e4e7" stroke="#a1a1aa"/></g><rect x="-90" y="-10" width="16" height="10" fill="#6b7280"/><rect x="74" y="-10" width="16" height="10" fill="#6b7280"/></g><g transform="translate(341.1 435.8) scale(1.2)"><rect x="-4" y="-18" width="3.5" height="18" fill="#1e3a8a"/><rect x="0.5" y="-18" width="3.5" height="18" fill="#1e3a8a"/><rect x="-6" y="-38" width="12" height="21" rx="3" fill="#f97316"/><rect x="-6" y="-31" width="12" height="2.5" fill="#e5e7eb"/><rect x="-9" y="-36" width="3" height="14" rx="1.5" fill="#f97316"/><rect x="6" y="-36" width="3" height="14" rx="1.5" fill="#f97316"/><circle cx="0" cy="-43" r="5" fill="#fcd9b6"/><path d="M-7 -44 A7 7 0 0 1 7 -44 Z" fill="#ffffff"/><rect x="-8" y="-45" width="16" height="2" fill="#ffffff"/></g><g transform="translate(72.1 437.8) scale(1.2)"><rect x="-4" y="-18" width="3.5" height="18" fill="#1e3a8a"/><rect x="0.5" y="-18" width="3.5" height="18" fill="#1e3a8a"/><rect x="-6" y="-38" width="12" height="21" rx="3" fill="#eab308"/><rect x="-6" y="-31" width="12" height="2.5" fill="#e5e7eb"/><rect x="-9" y="-36" width="3" height="14" rx="1.5" fill="#eab308"/><rect x="6" y="-36" width="3" height="14" rx="1.5" fill="#eab308"/><circle cx="0" cy="-43" r="5" fill="#fcd9b6"/><path d="M-7 -44 A7 7 0 0 1 7 -44 Z" fill="#fde047"/><rect x="-8" y="-45" width="16" height="2" fill="#fde047"/></g><g transform="translate(520.4 422.3) scale(0.9)"><rect x="-4" y="-18" width="3.5" height="18" fill="#1e3a8a"/><rect x="0.5" y="-18" width="3.5" height="18" fill="#1e3a8a"/><rect x="-6" y="-38" width="12" height="21" rx="3" fill="#22c55e"/><rect x="-6" y="-31" width="12" height="2.5" fill="#e5e7eb"/><rect x="-9" y="-36" width="3" height="14" rx="1.5" fill="#22c55e"/><rect x="6" y="-36" width="3" height="14" rx="1.5" fill="#22c55e"/><circle cx="0" cy="-43" r="5" fill="#fcd9b6"/><path d="M-7 -44 A7 7 0 0 1 7 -44 Z" fill="#fde047"/><rect x="-8" y="-45" width="16" height="2" fill="#fde047"/></g><g transform="translate(74.8 424.9) scale(0.9)"><rect x="-4" y="-18" width="3.5" height="18" fill="#1e3a8a"/><rect x="0.5" y="-18" width="3.5" height="18" fill="#1e3a8a"/><rect x="-6" y="-38" width="12" height="21" rx="3" fill="#f97316"/><rect x="-6" y="-31" width="12" height="2.5" fill="#e5e7eb"/><rect x="-9" y="-36" width="3" height="14" rx="1.5" fill="#f97316"/><rect x="6" y="-36" width="3" height="14" rx="1.5" fill="#f97316"/><circle cx="0" cy="-43" r="5" fill="#fcd9b6"/><path d="M-7 -44 A7 7 0 0 1 7 -44 Z" fill="#ffffff"/><rect x="-8" y="-45" width="16" height="2" fill="#ffffff"/></g><rect width="800" height="450" fill="#475569" opacity="0.12"/><rect width="800" height="450" filter="url(#grain)" opacity="0.07"/><rect width="800" height="450" fill="url(#vignette)"/></svg>
