<svg xmlns="http://www.w3.org/2000/svg" viewBox="0 0 800 450" width="800" height="450" preserveAspectRatio="xMidYMid slice"><defs><linearGradient id="sky" x1="0" y1="0" x2="0" y2="1"><stop offset="0" stop-color="#94a3b8"/><stop offset="0.6" stop-color="#cbd5e1"/><stop offset="1" stop-color="#e2e8f0"/></linearGradient>
<linearGradient id="shade" x1="0" y1="0" x2="0" y2="1"><stop offset="0" stop-color="#000" stop-opacity="0"/><stop offset="1" stop-color="#000" stop-opacity="0.25"/></linearGradient>
<radialGradient id="vignette" cx="0.5" cy="0.5" r="0.75"><stop offset="0.6" stop-color="#000" stop-opacity="0"/><stop offset="1" stop-color="#000" stop-opacity="0.35"/></radialGradient>
<filter id="grain"><feTurbulence type="fractalNoise" baseFrequency="0.85" numOctaves="2" stitchTiles="stitch"/><feColorMatrix type="saturate" values="0"/></filter></defs>
<rect width="800" height="450" fill="url(#sky)"/><g opacity="0.95" fill="#f1f5f9"><ellipse cx="774.6" cy="77.9" rx="94.4" ry="28.3"/><ellipse cx="821.8" cy="59" rx="56.7" ry="31.5"/><ellipse cx="730.5" cy="68.5" rx="47.2" ry="23.6"/></g><g opacity="0.95" fill="#f1f5f9"><ellipse cx="673.6" cy="66.9" rx="100.2" ry="30"/><ellipse cx="723.7" cy="46.9" rx="60.1" ry="33.4"/><ellipse cx="626.8" cy="56.9" rx="50.1" ry="25"/></g><g opacity="0.95" fill="#f1f5f9"><ellipse cx="266.3" cy="96.1" rx="58.8" ry="17.6"/><ellipse cx="295.7" cy="84.3" rx="35.3" ry="19.6"/><ellipse cx="238.8" cy="90.2" rx="29.4" ry="14.7"/></g><g opacity="0.95" fill="#f1f5f9"><ellipse cx="2.1" cy="58.2" rx="113.5" ry="34.1"/><ellipse cx="58.8" cy="35.5" rx="68.1" ry="37.8"/><ellipse cx="-50.9" cy="46.8" rx="56.8" ry="28.4"/></g><g opacity="0.95" fill="#f1f5f9"><ellipse cx="88.2" cy="87.8" rx="87.3" ry="26.2"/><ellipse cx="131.9" cy="70.3" rx="52.4" ry="29.1"/><ellipse cx="47.5" cy="79.1" rx="43.6" ry="21.8"/></g><g opacity="0.95" fill="#f1f5f9"><ellipse cx="621.6" cy="110" rx="69.3" ry="20.8"/><ellipse cx="656.3" cy="96.1" rx="41.6" ry="23.1"/><ellipse cx="589.2" cy="103" rx="34.7" ry="17.3"/></g><g opacity="0.95" fill="#f1f5f9"><ellipse cx="84.1" cy="80.2" rx="95.2" ry="28.5"/><ellipse cx="131.7" cy="61.2" rx="57.1" ry="31.7"/><ellipse cx="39.7" cy="70.7" rx="47.6" ry="23.8"/></g><path d="M0 220 L0 183.7 L80 145.4 L160 167.6 L240 132.3 L320 186 L400 153.2 L480 133.5 L560 139.1 L640 156.3 L720 161.4 L800 133.7 L800 220 Z" fill="#64748b" opacity="0.45"/><path d="M0 220 L0 181 L60 176.6 L120 184.8 L180 204.7 L240 201.2 L300 177.1 L360 207.4 L420 199.8 L480 183.9 L540 194.9 L600 198.6 L660 183.1 L720 177.4 L780 205 L800 220 Z" fill="#4d7c0f" opacity="0.55"/><g transform="translate(332.5 222) scale(0.9)"><rect x="-3" y="-10" width="6" height="16" fill="#713f12"/><ellipse cx="0" cy="-22" rx="16" ry="20" fill="#3f6212"/><ellipse cx="6" cy="-30" rx="10" ry="12" fill="#4d7c0f"/></g><g transform="translate(706.5 222) scale(1.1)"><rect x="-3" y="-10" width="6" height="16" fill="#713f12"/><ellipse cx="0" cy="-22" rx="16" ry="20" fill="#3f6212"/><ellipse cx="6" cy="-30" rx="10" ry="12" fill="#4d7c0f"/></g><g transform="translate(510.4 222) scale(1.4)"><rect x="-3" y="-10" width="6" height="16" fill="#713f12"/><ellipse cx="0" cy="-22" rx="16" ry="20" fill="#3f6212"/><ellipse cx="6" cy="-30" rx="10" ry="12" fill="#4d7c0f"/></g><g transform="translate(675.4 222) scale(0.8)"><rect x="-3" y="-10" width="6" height="16" fill="#713f12"/><ellipse cx="0" cy="-22" rx="16" ry="20" fill="#3f6212"/><ellipse cx="6" cy="-30" rx="10" ry="12" fill="#4d7c0f"/></g><g transform="translate(724.9 222) scale(1.2)"><rect x="-3" y="-10" width="6" height="16" fill="#713f12"/><ellipse cx="0" cy="-22" rx="16" ry="20" fill="#3f6212"/><ellipse cx="6" cy="-30" rx="10" ry="12" fill="#4d7c0f"/></g><g transform="translate(539.6 222) scale(0.7)"><rect x="-3" y="-10" width="6" height="16" fill="#713f12"/><ellipse cx="0" cy="-22" rx="16" ry="20" fill="#3f6212"/><ellipse cx="6" cy="-30" rx="10" ry="12" fill="#4d7c0f"/></g><g transform="translate(608.6 222) scale(1.4)"><rect x="-3" y="-10" width="6" height="16" fill="#713f12"/><ellipse cx="0" cy="-22" rx="16" ry="20" fill="#3f6212"/><ellipse cx="6" cy="-30" rx="10" ry="12" fill="#4d7c0f"/></g><g transform="translate(555.1 222) scale(0.8)"><rect x="-3" y="-10" width="6" height="16" fill="#713f12"/><ellipse cx="0" cy="-22" rx="16" ry="20" fill="#3f6212"/><ellipse cx="6" cy="-30" rx="10" ry="12" fill="#4d7c0f"/></g><g transform="translate(428.5 222) scale(1.2)"><rect x="-3" y="-10" width="6" height="16" fill="#713f12"/><ellipse cx="0" cy="-22" rx="16" ry="20" fill="#3f6212"/><ellipse cx="6" cy="-30" rx="10" ry="12" fill="#4d7c0f"/></g><g transform="translate(513.4 222) scale(1)"><rect x="-3" y="-10" width="6" height="16" fill="#713f12"/><ellipse cx="0" cy="-22" rx="16" ry="20" fill="#3f6212"/><ellipse cx="6" cy="-30" rx="10" ry="12" fill="#4d7c0f"/></g><g transform="translate(403.7 222) scale(1)"><rect x="-3" y="-10" width="6" height="16" fill="#713f12"/><ellipse cx="0" cy="-22" rx="16" ry="20" fill="#3f6212"/><ellipse cx="6" cy="-30" rx="10" ry="12" fill="#4d7c0f"/></g><g transform="translate(531.1 222) scale(0.9)"><rect x="-3" y="-10" width="6" height="16" fill="#713f12"/><ellipse cx="0" cy="-22" rx="16" ry="20" fill="#3f6212"/><ellipse cx="6" cy="-30" rx="10" ry="12" fill="#4d7c0f"/></g><rect x="0" y="222" width="800" height="228" fill="#a3a3a3"/><ellipse cx="763" cy="324.7" rx="16.7" ry="2.5" fill="#00000022"/><ellipse cx="579.3" cy="309.4" rx="20.1" ry="1.1" fill="#00000022"/><ellipse cx="11.4" cy="311.7" rx="10.6" ry="3" fill="#00000022"/><ellipse cx="76" cy="360.8" rx="6.5" ry="3.4" fill="#00000022"/><ellipse cx="737.8" cy="316.2" rx="16.5" ry="2.2" fill="#00000022"/><ellipse cx="532.6" cy="415.4" rx="10" ry="2.7" fill="#00000022"/><ellipse cx="308.3" cy="425.3" rx="20" ry="3.1" fill="#00000022"/><ellipse cx="41.3" cy="340.7" rx="18.2" ry="3.2" fill="#00000022"/><ellipse cx="128.6" cy="309.1" rx="8.3" ry="2.3" fill="#00000022"/><ellipse cx="0.4" cy="444.5" rx="15.7" ry="1.3" fill="#00000022"/><ellipse cx="56" cy="250.2" rx="7.5" ry="1.7" fill="#00000022"/><ellipse cx="556.7" cy="415.3" rx="10.1" ry="2.9" fill="#00000022"/><ellipse cx="761.7" cy="251.9" rx="20.6" ry="2.7" fill="#00000022"/><ellipse cx="176.9" cy="430.6" rx="13.1" ry="2.6" fill="#00000022"/><ellipse cx="223.3" cy="237.3" rx="6.1" ry="1.7" fill="#00000022"/><ellipse cx="64.9" cy="225.8" rx="14.9" ry="3.3" fill="#00000022"/><ellipse cx="200.4" cy="367.9" rx="17.2" ry="3.2" fill="#00000022"/><ellipse cx="304.2" cy="254" rx="7.5" ry="2.8" fill="#00000022"/><ellipse cx="38.8" cy="344.3" rx="10.5" ry="3.1" fill="#00000022"/><ellipse cx="455.1" cy="354.3" rx="21.9" ry="1.1" fill="#00000022"/><ellipse cx="64.9" cy="275.4" rx="10.7" ry="3.1" fill="#00000022"/><ellipse cx="556.4" cy="284.8" rx="19.3" ry="2.2" fill="#00000022"/><ellipse cx="359.2" cy="428.3" rx="12.6" ry="2.6" fill="#00000022"/><ellipse cx="506.7" cy="291.7" rx="21.1" ry="3.4" fill="#00000022"/><ellipse cx="575.6" cy="373.5" rx="11" ry="1.5" fill="#00000022"/><ellipse cx="568.7" cy="422.4" rx="22" ry="1.7" fill="#00000022"/><ellipse cx="515.5" cy="232.5" rx="10" ry="2.3" fill="#00000022"/><ellipse cx="5.1" cy="248.4" rx="15.7" ry="2.3" fill="#00000022"/><ellipse cx="361.1" cy="227.2" rx="7.6" ry="1.6" fill="#00000022"/><ellipse cx="87.7" cy="430.3" rx="18.4" ry="2.8" fill="#00000022"/><ellipse cx="454.6" cy="290.8" rx="17.9" ry="1.5" fill="#00000022"/><ellipse cx="665.3" cy="423.2" rx="12.9" ry="2.7" fill="#00000022"/><ellipse cx="148.3" cy="240.5" rx="20.9" ry="2.5" fill="#00000022"/><ellipse cx="181.1" cy="259.4" rx="12.3" ry="3" fill="#00000022"/><ellipse cx="620.7" cy="407.8" rx="10" ry="2.9" fill="#00000022"/><ellipse cx="281.9" cy="384.8" rx="20.8" ry="3.9" fill="#00000022"/><ellipse cx="307.9" cy="348.7" rx="15" ry="1.8" fill="#00000022"/><ellipse cx="569.9" cy="363.5" rx="5.3" ry="3.4" fill="#00000022"/><ellipse cx="277.9" cy="446.2" rx="18.9" ry="2.4" fill="#00000022"/><ellipse cx="743.7" cy="337.1" rx="10.7" ry="1.8" fill="#00000022"/><path d="M330 222 L470 222 L800 450 L0 450 Z" fill="#262626"/><path d="M398 230 L402 230 L404 248 L396 248 Z" fill="#fafafa"/><path d="M397 266.7 L403 266.7 L405.7 287.7 L394.3 287.7 Z" fill="#fafafa"/><path d="M396 303.3 L404 303.3 L407.3 327.3 L392.7 327.3 Z" fill="#fafafa"/><path d="M395 340 L405 340 L409 367 L391 367 Z" fill="#fafafa"/><path d="M394 376.7 L406 376.7 L410.7 406.7 L389.3 406.7 Z" fill="#fafafa"/><path d="M393 413.3 L407 413.3 L412.3 446.3 L387.7 446.3 Z" fill="#fafafa"/><path d="M335 222 L338 222 L40 450 L20 450 Z" fill="#fafafa"/><path d="M462 222 L465 222 L780 450 L760 450 Z" fill="#fafafa"/><g transform="translate(560 300) scale(0.8)"><path d="M-6 0 L-2 -20 L2 -20 L6 0 Z" fill="#f97316"/><rect x="-4" y="-12" width="8" height="3" fill="#ffffff"/><rect x="-9" y="-1" width="18" height="3" fill="#ea580c"/></g><g transform="translate(590 326) scale(0.9)"><path d="M-6 0 L-2 -20 L2 -20 L6 0 Z" fill="#f97316"/><rect x="-4" y="-12" width="8" height="3" fill="#ffffff"/><rect x="-9" y="-1" width="18" height="3" fill="#ea580c"/></g><g transform="translate(620 352) scale(1)"><path d="M-6 0 L-2 -20 L2 -20 L6 0 Z" fill="#f97316"/><rect x="-4" y="-12" width="8" height="3" fill="#ffffff"/><rect x="-9" y="-1" width="18" height="3" fill="#ea580c"/></g><g transform="translate(650 378) scale(1.1)"><path d="M-6 0 L-2 -20 L2 -20 L6 0 Z" fill="#f97316"/><rect x="-4" y="-12" width="8" height="3" fill="#ffffff"/><rect x="-9" y="-1" width="18" height="3" fill="#ea580c"/></g><g transform="translate(680 404) scale(1.2)"><path d="M-6 0 L-2 -20 L2 -20 L6 0 Z" fill="#f97316"/><rect x="-4" y="-12" width="8" height="3" fill="#ffffff"/><rect x="-9" y="-1" width="18" height="3" fill="#ea580c"/></g><g transform="translate(710 430) scale(1.3)"><path d="M-6 0 L-2 -20 L2 -20 L6 0 Z" fill="#f97316"/><rect x="-4" y="-12" width="8" height="3" fill="#ffffff"/><rect x="-9" y="-1" width="18" height="3" fill="#ea580c"/></g><g transform="translate(150 380)"><rect x="-70" y="-60" width="140" height="44" rx="4" fill="#f8fafc"/><rect x="-70" y="-60" width="140" height="10" fill="#f97316"/><circle cx="-40" cy="-12" r="12" fill="#111827"/><circle cx="40" cy="-12" r="12" fill="#111827"/></g><g transform="translate(372 408.6) scale(1.1)"><rect x="-4" y="-18" width="3.5" height="18" fill="#1e3a8a"/><rect x="0.5" y="-18" width="3.5" height="18" fill="#1e3a8a"/><rect x="-6" y="-38" width="12" height="21" rx="3" fill="#f97316"/><rect x="-6" y="-31" width="12" height="2.5" fill="#e5e7eb"/><rect x="-9" y="-36" width="3" height="14" rx="1.5" fill="#f97316"/><rect x="6" y="-36" width="3" height="14" rx="1.5" fill="#f97316"/><circle cx="0" cy="-43" r="5" fill="#fcd9b6"/><path d="M-7 -44 A7 7 0 0 1 7 -44 Z" fill="#ffffff"/><rect x="-8" y="-45" width="16" height="2" fill="#ffffff"/></g><g transform="translate(395.4 420.4) scale(1.2)"><rect x="-4" y="-18" width="3.5" height="18" fill="#1e3a8a"/><rect x="0.5" y="-18" width="3.5" height="18" fill="#1e3a8a"/><rect x="-6" y="-38" width="12" height="21" rx="3" fill="#eab308"/><rect x="-6" y="-31" width="12" height="2.5" fill="#e5e7eb"/><rect x="-9" y="-36" width="3" height="14" rx="1.5" fill="#eab308"/><rect x="6" y="-36" width="3" height="14" rx="1.5" fill="#eab308"/><circle cx="0" cy="-43" r="5" fill="#fcd9b6"/><path d="M-7 -44 A7 7 0 0 1 7 -44 Z" fill="#fde047"/><rect x="-8" y="-45" width="16" height="2" fill="#fde047"/></g><g transform="translate(413.6 400.4) scale(1)"><rect x="-4" y="-18" width="3.5" height="18" fill="#1e3a8a"/><rect x="0.5" y="-18" width="3.5" height="18" fill="#1e3a8a"/><rect x="-6" y="-38" width="12" height="21" rx="3" fill="#22c55e"/><rect x="-6" y="-31" width="12" height="2.5" fill="#e5e7eb"/><rect x="-9" y="-36" width="3" height="14" rx="1.5" fill="#22c55e"/><rect x="6" y="-36" width="3" height="14" rx="1.5" fill="#22c55e"/><circle cx="0" cy="-43" r="5" fill="#fcd9b6"/><path d="M-7 -44 A7 7 0 0 1 7 -44 Z" fill="#fde047"/><rect x="-8" y="-45" width="16" height="2" fill="#fde047"/></g><rect width="800" height="450" fill="#475569" opacity="0.12"/><rect width="800" height="450" filter="url(#grain)" opacity="0.07"/><rect width="800" height="450" fill="url(#vignette)"/></svg>
