<svg xmlns="http://www.w3.org/2000/svg" viewBox="0 0 800 450" width="800" height="450" preserveAspectRatio="xMidYMid slice"><defs><linearGradient id="sky" x1="0" y1="0" x2="0" y2="1"><stop offset="0" stop-color="#38bdf8"/><stop offset="0.6" stop-color="#bae6fd"/><stop offset="1" stop-color="#f0f9ff"/></linearGradient>
<linearGradient id="shade" x1="0" y1="0" x2="0" y2="1"><stop offset="0" stop-color="#000" stop-opacity="0"/><stop offset="1" stop-color="#000" stop-opacity="0.25"/></linearGradient>
<radialGradient id="vignette" cx="0.5" cy="0.5" r="0.75"><stop offset="0.6" stop-color="#000" stop-opacity="0"/><stop offset="1" stop-color="#000" stop-opacity="0.35"/></radialGradient>
<filter id="grain"><feTurbulence type="fractalNoise" baseFrequency="0.85" numOctaves="2" stitchTiles="stitch"/><feColorMatrix type="saturate" values="0"/></filter></defs>
<rect width="800" height="450" fill="url(#sky)"/><circle cx="583.3" cy="67.2" r="34" fill="#fef9c3" opacity="0.9"/><circle cx="0" cy="0" r="0"/><g opacity="0.85" fill="#ffffff"><ellipse cx="605.9" cy="82" rx="111.8" ry="33.5"/><ellipse cx="661.8" cy="59.6" rx="67.1" ry="37.3"/><ellipse cx="553.7" cy="70.8" rx="55.9" ry="27.9"/></g><g opacity="0.85" fill="#ffffff"><ellipse cx="108.3" cy="66.9" rx="113.1" ry="33.9"/><ellipse cx="164.8" cy="44.3" rx="67.8" ry="37.7"/><ellipse cx="55.5" cy="55.6" rx="56.5" ry="28.3"/></g><g opacity="0.85" fill="#ffffff"><ellipse cx="128.2" cy="51" rx="71" ry="21.3"/><ellipse cx="163.6" cy="36.9" rx="42.6" ry="23.7"/><ellipse cx="95" cy="44" rx="35.5" ry="17.7"/></g><path d="M0 300 L0 261 L80 259.8 L160 219.4 L240 224.6 L320 260.1 L400 259.1 L480 235.3 L560 234.5 L640 268 L720 219.8 L800 243 L800 300 Z" fill="#94a3b8" opacity="0.45"/><path d="M0 300 L0 256.3 L60 265.8 L120 257.1 L180 283 L240 288.5 L300 256.7 L360 256.4 L420 287.4 L480 263.7 L540 271 L600 288.5 L660 288.3 L720 287.9 L780 279.7 L800 300 Z" fill="#4d7c0f" opacity="0.55"/><rect x="0" y="300" width="800" height="150" fill="#a8a29e"/><ellipse cx="156.8" cy="447.2" rx="19.8" ry="3.8" fill="#00000022"/><ellipse cx="608" cy="367.4" rx="9.8" ry="3.2" fill="#00000022"/><ellipse cx="517.4" cy="394.2" rx="11" ry="1.1" fill="#00000022"/><ellipse cx="3.7" cy="307.6" rx="21.9" ry="3.4" fill="#00000022"/><ellipse cx="337.8" cy="446.6" rx="6.7" ry="3.4" fill="#00000022"/><ellipse cx="431.1" cy="303.7" rx="7.7" ry="1.7" fill="#00000022"/><ellipse cx="636.5" cy="415.3" rx="11.4" ry="1.2" fill="#00000022"/><ellipse cx="460.6" cy="347.8" rx="8" ry="1.3" fill="#00000022"/><ellipse cx="538.9" cy="380" rx="18.8" ry="1.6" fill="#00000022"/><ellipse cx="54.3" cy="331.6" rx="7.3" ry="2.1" fill="#00000022"/><ellipse cx="678.9" cy="372.2" rx="16.5" ry="1.4" fill="#00000022"/><ellipse cx="65.7" cy="379.3" rx="13.5" ry="2.4" fill="#00000022"/><ellipse cx="416.2" cy="402.2" rx="8.7" ry="2.7" fill="#00000022"/><ellipse cx="351" cy="312.1" rx="15.3" ry="2.4" fill="#00000022"/><ellipse cx="62.7" cy="313.6" rx="8.2" ry="2.8" fill="#00000022"/><ellipse cx="769.8" cy="317.5" rx="20.8" ry="1.1" fill="#00000022"/><ellipse cx="177.8" cy="353.5" rx="15.7" ry="1.8" fill="#00000022"/><ellipse cx="15.3" cy="415.7" rx="5.3" ry="3.2" fill="#00000022"/><ellipse cx="156.4" cy="335" rx="4.2" ry="2.4" fill="#00000022"/><ellipse cx="54.4" cy="428.1" rx="7.4" ry="3" fill="#00000022"/><ellipse cx="152.3" cy="309.8" rx="15.6" ry="3.8" fill="#00000022"/><ellipse cx="292.8" cy="386.3" rx="8.4" ry="3.3" fill="#00000022"/><ellipse cx="234.1" cy="353.6" rx="14.8" ry="2" fill="#00000022"/><ellipse cx="668.9" cy="344.1" rx="5.2" ry="2.8" fill="#00000022"/><ellipse cx="252.1" cy="424.1" rx="21.7" ry="2.5" fill="#00000022"/><ellipse cx="325.3" cy="342.1" rx="12" ry="1.8" fill="#00000022"/><ellipse cx="558.6" cy="317.6" rx="6.8" ry="2.6" fill="#00000022"/><ellipse cx="547.4" cy="404.2" rx="8.8" ry="2.7" fill="#00000022"/><ellipse cx="593.7" cy="395.4" rx="16.7" ry="2.6" fill="#00000022"/><ellipse cx="424.1" cy="322.6" rx="9.3" ry="2.7" fill="#00000022"/><ellipse cx="681.9" cy="433.7" rx="13.9" ry="2.6" fill="#00000022"/><ellipse cx="370.5" cy="434.7" rx="20.8" ry="3.5" fill="#00000022"/><ellipse cx="663.6" cy="326.7" rx="20.9" ry="2.9" fill="#00000022"/><ellipse cx="370.8" cy="317.6" rx="12.1" ry="2.2" fill="#00000022"/><ellipse cx="745.8" cy="416.3" rx="6.1" ry="3.1" fill="#00000022"/><ellipse cx="373.4" cy="357.7" rx="10.4" ry="2.7" fill="#00000022"/><ellipse cx="202.1" cy="443.7" rx="8.9" ry="3.7" fill="#00000022"/><ellipse cx="584.1" cy="437.9" rx="17.6" ry="3.9" fill="#00000022"/><ellipse cx="587.8" cy="321.2" rx="18.8" ry="3.5" fill="#00000022"/><ellipse cx="343.6" cy="380.5" rx="11.9" ry="2.3" fill="#00000022"/><g fill="#475569"><rect x="170" y="80" width="10" height="230"/><rect x="255" y="80" width="10" height="230"/><rect x="340" y="80" width="10" height="230"/><rect x="425" y="80" width="10" height="230"/><rect x="510" y="80" width="10" height="230"/><rect x="595" y="80" width="10" height="230"/><rect x="165" y="80" width="440" height="8"/><rect x="165" y="135" width="440" height="8"/><rect x="165" y="190" width="440" height="8"/><rect x="165" y="245" width="440" height="8"/><rect x="165" y="300" width="440" height="8"/></g><g stroke="#64748b" stroke-width="3"><line x1="175" y1="300" x2="260" y2="245"/><line x1="260" y1="300" x2="345" y2="245"/><line x1="345" y1="300" x2="430" y2="245"/><line x1="430" y1="300" x2="515" y2="245"/><line x1="515" y1="300" x2="600" y2="245"/></g><g fill="#cbd5e1" opacity="0.8"><rect x="170" y="248" width="440" height="6"/><rect x="170" y="193" width="440" height="6"/><rect x="170" y="138" width="440" height="6"/></g><g transform="translate(700 320)"><rect x="-8" y="-300" width="16" height="300" fill="#facc15"/><rect x="-260" y="-310" width="320" height="12" fill="#facc15"/><line x1="-200" y1="-298" x2="-200" y2="-180" stroke="#111827" stroke-width="2"/><rect x="-250" y="-180" width="100" height="10" fill="#475569"/></g><g transform="translate(97.6 419.9) scale(1.3)"><rect x="-4" y="-18" width="3.5" height="18" fill="#1e3a8a"/><rect x="0.5" y="-18" width="3.5" height="18" fill="#1e3a8a"/><rect x="-6" y="-38" width="12" height="21" rx="3" fill="#f97316"/><rect x="-6" y="-31" width="12" height="2.5" fill="#e5e7eb"/><rect x="-9" y="-36" width="3" height="14" rx="1.5" fill="#f97316"/><rect x="6" y="-36" width="3" height="14" rx="1.5" fill="#f97316"/><circle cx="0" cy="-43" r="5" fill="#fcd9b6"/><path d="M-7 -44 A7 7 0 0 1 7 -44 Z" fill="#ffffff"/><rect x="-8" y="-45" width="16" height="2" fill="#ffffff"/></g><g transform="translate(149.8 369.5) scale(1)"><rect x="-4" y="-18" width="3.5" height="18" fill="#1e3a8a"/><rect x="0.5" y="-18" width="3.5" height="18" fill="#1e3a8a"/><rect x="-6" y="-38" width="12" height="21" rx="3" fill="#eab308"/><rect x="-6" y="-31" width="12" height="2.5" fill="#e5e7eb"/><rect x="-9" y="-36" width="3" height="14" rx="1.5" fill="#eab308"/><rect x="6" y="-36" width="3" height="14" rx="1.5" fill="#eab308"/><circle cx="0" cy="-43" r="5" fill="#fcd9b6"/><path d="M-7 -44 A7 7 0 0 1 7 -44 Z" fill="#fde047"/><rect x="-8" y="-45" width="16" height="2" fill="#fde047"/></g><g transform="translate(668.2 392.7) scale(1.2)"><rect x="-4" y="-18" width="3.5" height="18" fill="#1e3a8a"/><rect x="0.5" y="-18" width="3.5" height="18" fill="#1e3a8a"/><rect x="-6" y="-38" width="12" height="21" rx="3" fill="#22c55e"/><rect x="-6" y="-31" width="12" height="2.5" fill="#e5e7eb"/><rect x="-9" y="-36" width="3" height="14" rx="1.5" fill="#22c55e"/><rect x="6" y="-36" width="3" height="14" rx="1.5" fill="#22c55e"/><circle cx="0" cy="-43" r="5" fill="#fcd9b6"/><path d="M-7 -44 A7 7 0 0 1 7 -44 Z" fill="#fde047"/><rect x="-8" y="-45" width="16" height="2" fill="#fde047"/></g><g transform="translate(584.7 405.6) scale(1.2)"><rect x="-4" y="-18" width="3.5" height="18" fill="#1e3a8a"/><rect x="0.5" y="-18" width="3.5" height="18" fill="#1e3a8a"/><rect x="-6" y="-38" width="12" height="21" rx="3" fill="#f97316"/><rect x="-6" y="-31" width="12" height="2.5" fill="#e5e7eb"/><rect x="-9" y="-36" width="3" height="14" rx="1.5" fill="#f97316"/><rect x="6" y="-36" width="3" height="14" rx="1.5" fill="#f97316"/><circle cx="0" cy="-43" r="5" fill="#fcd9b6"/><path d="M-7 -44 A7 7 0 0 1 7 -44 Z" fill="#ffffff"/><rect x="-8" y="-45" width="16" height="2" fill="#ffffff"/></g><rect width="800" height="450" filter="url(#grain)" opacity="0.07"/><rect width="800" height="450" fill="url(#vignette)"/></svg>
