<svg xmlns="http://www.w3.org/2000/svg" viewBox="0 0 800 450" width="800" height="450" preserveAspectRatio="xMidYMid slice"><defs><linearGradient id="sky" x1="0" y1="0" x2="0" y2="1"><stop offset="0" stop-color="#94a3b8"/><stop offset="0.6" stop-color="#cbd5e1"/><stop offset="1" stop-color="#e2e8f0"/></linearGradient>
<linearGradient id="shade" x1="0" y1="0" x2="0" y2="1"><stop offset="0" stop-color="#000" stop-opacity="0"/><stop offset="1" stop-color="#000" stop-opacity="0.25"/></linearGradient>
<radialGradient id="vignette" cx="0.5" cy="0.5" r="0.75"><stop offset="0.6" stop-color="#000" stop-opacity="0"/><stop offset="1" stop-color="#000" stop-opacity="0.35"/></radialGradient>
<filter id="grain"><feTurbulence type="fractalNoise" baseFrequency="0.85" numOctaves="2" stitchTiles="stitch"/><feColorMatrix type="saturate" values="0"/></filter></defs>
<rect width="800" height="450" fill="url(#sky)"/><g opacity="0.95" fill="#f1f5f9"><ellipse cx="404.3" cy="89.7" rx="113.1" ry="33.9"/><ellipse cx="460.8" cy="67.1" rx="67.8" ry="37.7"/><ellipse cx="351.5" cy="78.4" rx="56.5" ry="28.3"/></g><g opacity="0.95" fill="#f1f5f9"><ellipse cx="22.6" cy="72.6" rx="101.1" ry="30.3"/><ellipse cx="73.2" cy="52.4" rx="60.7" ry="33.7"/><ellipse cx="-24.5" cy="62.5" rx="50.5" ry="25.3"/></g><g opacity="0.95" fill="#f1f5f9"><ellipse cx="197" cy="89" rx="68.6" ry="20.6"/><ellipse cx="231.2" cy="75.2" rx="41.1" ry="22.9"/><ellipse cx="165" cy="82.1" rx="34.3" ry="17.1"/></g><g opacity="0.95" fill="#f1f5f9"><ellipse cx="729.1" cy="92.6" rx="83.6" ry="25.1"/><ellipse cx="770.9" cy="75.8" rx="50.2" ry="27.9"/><ellipse cx="690.1" cy="84.2" rx="41.8" ry="20.9"/></g><g opacity="0.95" fill="#f1f5f9"><ellipse cx="641.7" cy="39.3" rx="68.9" ry="20.7"/><ellipse cx="676.2" cy="25.5" rx="41.3" ry="23"/><ellipse cx="609.6" cy="32.4" rx="34.4" ry="17.2"/></g><g opacity="0.95" fill="#f1f5f9"><ellipse cx="59.4" cy="103.2" rx="106.5" ry="32"/><ellipse cx="112.7" cy="81.9" rx="63.9" ry="35.5"/><ellipse cx="9.7" cy="92.6" rx="53.3" ry="26.6"/></g><g opacity="0.95" fill="#f1f5f9"><ellipse cx="786.8" cy="50.8" rx="103.1" ry="30.9"/><ellipse cx="838.3" cy="30.2" rx="61.8" ry="34.4"/><ellipse cx="738.7" cy="40.5" rx="51.5" ry="25.8"/></g><rect width="800" height="450" fill="#292524"/><path d="M40 450 L40 180 Q400 0 760 180 L760 450" fill="none" stroke="#d6d3d1" stroke-width="26"/><path d="M86.8 450 L86.8 193.8 Q400 37.2 713.2 193.8 L713.2 450" fill="none" stroke="#a8a29e" stroke-width="22.6"/><path d="M133.6 450 L133.6 207.6 Q400 74.4 666.4 207.6 L666.4 450" fill="none" stroke="#d6d3d1" stroke-width="19.2"/><path d="M180.4 450 L180.4 221.4 Q400 111.6 619.6 221.4 L619.6 450" fill="none" stroke="#a8a29e" stroke-width="15.9"/><path d="M227.2 450 L227.2 235.2 Q400 148.8 572.8 235.2 L572.8 450" fill="none" stroke="#d6d3d1" stroke-width="12.5"/><path d="M274 450 L274 249 Q400 186 526 249 L526 450" fill="none" stroke="#a8a29e" stroke-width="9.1"/><path d="M320.8 450 L320.8 262.8 Q400 223.2 479.2 262.8 L479.2 450" fill="none" stroke="#d6d3d1" stroke-width="5.7"/><path d="M300 450 L380 300 L420 300 L500 450 Z" fill="#1c1917"/><circle cx="130" cy="150" r="6" fill="#fef08a"/><circle cx="670" cy="150" r="6" fill="#fef08a"/><circle cx="180" cy="172" r="5.3" fill="#fef08a"/><circle cx="620" cy="172" r="5.3" fill="#fef08a"/><circle cx="230" cy="194" r="4.6" fill="#fef08a"/><circle cx="570" cy="194" r="4.6" fill="#fef08a"/><circle cx="280" cy="216" r="3.9" fill="#fef08a"/><circle cx="520" cy="216" r="3.9" fill="#fef08a"/><circle cx="330" cy="238" r="3.2" fill="#fef08a"/><circle cx="470" cy="238" r="3.2" fill="#fef08a"/><circle cx="380" cy="260" r="2.5" fill="#fef08a"/><circle cx="420" cy="260" r="2.5" fill="#fef08a"/><g transform="translate(400 330)"><rect x="-190" y="-150" width="380" height="20" fill="#1d4ed8"/><rect x="-190" y="-130" width="20" height="200" fill="#1e40af"/><rect x="170" y="-130" width="20" height="200" fill="#1e40af"/></g><g transform="translate(560.9 429.2) scale(1.2)"><rect x="-4" y="-18" width="3.5" height="18" fill="#1e3a8a"/><rect x="0.5" y="-18" width="3.5" height="18" fill="#1e3a8a"/><rect x="-6" y="-38" width="12" height="21" rx="3" fill="#f97316"/><rect x="-6" y="-31" width="12" height="2.5" fill="#e5e7eb"/><rect x="-9" y="-36" width="3" height="14" rx="1.5" fill="#f97316"/><rect x="6" y="-36" width="3" height="14" rx="1.5" fill="#f97316"/><circle cx="0" cy="-43" r="5" fill="#fcd9b6"/><path d="M-7 -44 A7 7 0 0 1 7 -44 Z" fill="#ffffff"/><rect x="-8" y="-45" width="16" height="2" fill="#ffffff"/></g><g transform="translate(544 430.8) scale(1.3)"><rect x="-4" y="-18" width="3.5" height="18" fill="#1e3a8a"/><rect x="0.5" y="-18" width="3.5" height="18" fill="#1e3a8a"/><rect x="-6" y="-38" width="12" height="21" rx="3" fill="#eab308"/><rect x="-6" y="-31" width="12" height="2.5" fill="#e5e7eb"/><rect x="-9" y="-36" width="3" height="14" rx="1.5" fill="#eab308"/><rect x="6" y="-36" width="3" height="14" rx="1.5" fill="#eab308"/><circle cx="0" cy="-43" r="5" fill="#fcd9b6"/><path d="M-7 -44 A7 7 0 0 1 7 -44 Z" fill="#fde047"/><rect x="-8" y="-45" width="16" height="2" fill="#fde047"/></g><g transform="translate(525.9 403.8) scale(0.9)"><rect x="-4" y="-18" width="3.5" height="18" fill="#1e3a8a"/><rect x="0.5" y="-18" width="3.5" height="18" fill="#1e3a8a"/><rect x="-6" y="-38" width="12" height="21" rx="3" fill="#22c55e"/><rect x="-6" y="-31" width="12" height="2.5" fill="#e5e7eb"/><rect x="-9" y="-36" width="3" height="14" rx="1.5" fill="#22c55e"/><rect x="6" y="-36" width="3" height="14" rx="1.5" fill="#22c55e"/><circle cx="0" cy="-43" r="5" fill="#fcd9b6"/><path d="M-7 -44 A7 7 0 0 1 7 -44 Z" fill="#fde047"/><rect x="-8" y="-45" width="16" height="2" fill="#fde047"/></g><rect width="800" height="450" fill="#475569" opacity="0.12"/><rect width="800" height="450" filter="url(#grain)" opacity="0.07"/><rect width="800" height="450" fill="url(#vignette)"/></svg>
